<svg width="400" height="400" viewBox="0 0 400 400" fill="none" xmlns="http://www.w3.org/2000/svg">
  <mask id="mask0_714_590" style="mask-type:luminance" maskUnits="userSpaceOnUse" x="0" y="0" width="400" height="400">
    <path d="M399.609 0H0V400H399.609V0Z" fill="white"/>
  </mask>
  <g mask="url(#mask0_714_590)">
    <path d="M0 0H400V400H0V0Z" fill="white"/>
    <path d="M192.071 32.0414C192.182 30.9848 192.397 30.0671 192.918 29.131C193.603 27.9024 194.645 26.9592 196.017 26.5821C197.43 26.1937 198.949 26.4933 200.175 27.2711C202.074 28.4749 202.7 30.1893 203.205 32.2524C204.793 31.5295 206.387 30.6257 208.087 30.2067C209.207 29.9307 210.512 29.8382 211.519 30.5028C212.354 31.0538 212.871 32.0966 213.05 33.0577C213.342 34.6245 212.615 35.9331 211.756 37.1698C214.049 37.4304 216.418 38.1054 218.255 39.5559C220.078 40.9949 221.392 43.1633 221.654 45.4863C221.896 47.6348 221.313 49.7129 220.004 51.416C221.704 51.7328 223.261 52.2117 224.388 53.6215C225.646 55.1946 225.524 56.8774 225.272 58.7383C224.537 59.7821 223.648 60.434 222.629 61.1711C222.522 61.5848 222.413 61.9996 222.278 62.4055C220.512 67.7051 216.405 65.5739 214.348 66.5758C214.436 66.911 214.522 67.1391 214.428 67.486C214.249 68.1446 212.17 69.4746 211.566 69.8129C210.723 70.2844 209.314 70.4305 208.403 70.0856C207.846 69.8742 207.832 69.6992 207.588 69.1879L206.915 69.2207C206.956 69.7586 206.992 69.9703 207.422 70.3258C208.847 71.5031 210.794 72.3781 212.388 73.334C214.548 72.3059 216.663 71.9961 218.992 72.7703C220.679 73.3313 222.587 74.5153 223.356 76.1864C223.742 77.0254 223.751 77.9395 223.384 78.7863C222.917 79.861 221.991 80.6246 221.048 81.2723C225.822 83.1313 229.389 85.6863 232.562 89.7457C235.538 93.5516 238.645 101.444 240.871 106.007C246.512 117.572 252.391 129.093 257.578 140.869C260.636 147.813 260.432 155.945 257.702 162.963C255.368 168.963 250.968 173.914 245.912 177.808C244.328 179.027 242.559 180.075 241.043 181.366L278.081 181.41C281.576 181.406 285.071 181.383 288.565 181.341C290.834 181.317 293.234 181.145 295.482 181.481C296.584 181.646 297.489 182.223 298.253 183.019C299.043 183.842 299.411 184.78 299.464 185.909C299.627 189.386 299.526 192.913 299.543 196.397L299.58 217.667L299.515 280.422L299.57 334.832L299.559 351.626C299.563 354.093 299.799 356.664 299.645 359.114C299.576 360.205 299.379 361.505 298.48 362.241C297.635 362.933 296.424 363.151 295.37 363.248C291.092 363.642 286.105 363.238 281.732 363.245L269.275 363.286C266.643 363.296 263.884 363.477 261.278 363.083C259.885 362.873 259.07 362.013 258.145 361.028C256.595 359.38 255.266 357.449 253.896 355.65L246.138 345.422C240.557 338.141 234.607 331.109 229.297 323.619L229.189 323.466C228.859 325.61 228.511 327.764 228.364 329.93C228.214 332.162 228.275 334.446 227.933 336.658L223.439 336.954L223.433 337.223C223.413 338.723 223.766 343.031 224.707 344.105C225.346 344.302 226.232 344.483 226.777 344.873C227.93 345.701 228.97 346.863 230.071 347.78C233.2 350.39 244.436 358.92 245.814 361.675C246.588 363.223 246.62 368.566 245.929 370.198C245.692 370.756 245.25 371.279 244.678 371.507C243.664 371.913 202.678 371.919 201.907 371.608C201.359 371.387 200.965 370.72 200.774 370.188C200.202 368.595 199.935 363.4 200.78 361.885C201.08 361.347 201.586 361.111 202.11 360.845C202.319 358.62 202.451 356.391 202.506 354.157C202.584 351.174 202.103 346.651 203.046 343.941C203.65 342.206 206.054 339.289 205.268 337.446C205.205 337.4 205.142 337.355 205.079 337.308C204.372 336.779 204.063 336.448 203.92 335.55C203.463 332.679 204.589 329.549 204.796 326.673C205.556 316.096 206.12 305.485 207.061 294.923C204.829 292.162 202.786 289.221 200.684 286.358C199.15 284.268 197.426 282.176 196.068 279.973C196.073 285.799 196.78 334.809 195.941 336.745C195.385 336.996 194.818 336.98 194.22 337.006C194.632 337.889 194.732 338.763 194.86 339.715C195.2 340.009 195.098 339.849 195.252 340.235C195.865 341.773 196.78 343.012 197.203 344.655C198.025 347.855 197.66 352.808 197.528 356.166C197.47 357.64 197.252 359.291 197.528 360.746C197.629 361.275 198.681 361.217 198.889 362.061C199.203 363.334 199.371 369.786 198.754 370.76C197.941 371.407 197.082 371.623 196.057 371.72C194.589 371.859 193.035 371.744 191.556 371.738L182.235 371.722L166.647 371.736C163.459 371.745 160.186 371.916 157.009 371.723C156.365 371.683 155.566 371.671 155.07 371.213C153.379 369.652 154.034 364.44 154.006 362.174C156.586 358.785 159.14 357.322 162.45 354.814C164.063 353.591 165.603 352.19 167.276 351.058C168.583 350.174 170.282 349.727 171.414 348.607C172.241 347.79 172.505 346.425 173.184 345.475C174.021 344.307 175.272 344.305 176.572 344.128C176.667 341.687 176.154 339.412 175.827 337.007C174.692 337.073 173.564 337.166 172.481 336.769C172.07 336.312 172.081 336.191 172.014 335.575C171.736 332.993 172.006 330.293 171.77 327.666L168.748 295.159C168.18 289.116 167.728 283.038 167.007 277.01C162.036 276.862 157.038 276.954 152.064 276.953L126.238 276.952L116.302 276.972C114.285 276.982 112.197 277.105 110.192 276.912C109.264 276.823 108.458 276.542 107.733 275.945C106.891 275.254 106.417 274.316 106.316 273.236C106.086 270.767 106.254 268.14 106.253 265.653L106.259 251.098L106.258 206.048L106.311 132.748L106.279 107.711C106.271 103.685 106.132 99.6184 106.251 95.5977C106.286 94.4192 106.534 93.2989 107.336 92.3965C108.073 91.5684 109.178 90.9778 110.27 90.7969C113.804 90.2117 119.915 90.6238 123.736 90.6242L150.601 90.6133C155.236 90.6113 160.043 90.8719 164.659 90.5266L164.898 90.5071C167.705 86.3719 170.177 84.2059 174.738 82.1442C174.432 81.6145 174.083 81.059 173.885 80.4781C173.447 79.1891 173.646 77.6211 174.272 76.4305C175.251 74.5664 177.209 73.4621 179.181 72.9278C181.748 72.2328 183.584 72.7114 185.8 74.0078C187.396 72.4531 189.553 71.6789 191.639 71.0297C189.947 69.5606 188.583 68.4492 187.75 66.3004C187.545 66.8196 187.344 67.3516 187.076 67.8418C187.006 67.9702 186.93 68.0947 186.847 68.2153C186.763 68.3356 186.674 68.4511 186.578 68.5617C186.483 68.6727 186.382 68.7781 186.275 68.8781C186.168 68.9784 186.057 69.0727 185.94 69.161C185.823 69.249 185.702 69.3307 185.577 69.4063C185.451 69.4815 185.322 69.5499 185.189 69.6114C185.057 69.6731 184.921 69.7275 184.782 69.7746C184.644 69.8218 184.503 69.8615 184.361 69.8938C182.955 70.2242 181.304 69.8797 180.121 69.0625C178.679 68.0656 178.283 66.9367 178.004 65.2785C176.446 66.1227 174.364 67.2848 172.544 66.8606C171.927 66.7168 171.532 66.3883 171.226 65.8418C170.578 64.6867 171.09 63.1946 171.377 62.0078C170.198 61.6551 168.803 61.3563 168.071 60.2699C167.744 59.7863 167.645 59.2516 167.762 58.6813C168.277 56.1684 171.901 54.2848 173.927 53.0196L173.314 52.691C171.664 51.8008 169.913 50.8086 169.4 48.85C169.174 47.9867 169.293 47.1125 169.752 46.3442C170.916 44.3985 173.533 43.8957 175.568 43.4176L175.1 42.0336C174.531 40.3817 174.168 38.5518 174.872 36.8739C175.219 36.0458 175.821 35.3964 176.667 35.0736C178.606 34.3344 180.898 35.4915 182.669 36.2345C182.45 34.42 182.289 32.0873 183.512 30.5776C184.091 29.8615 184.922 29.4822 185.828 29.3944C188.256 29.1595 190.28 30.6119 192.071 32.0414Z" fill="black"/>
    <path d="M208.705 62.1181C208.844 61.2415 209.151 60.6333 209.882 60.0942C209.955 60.0411 210.031 59.9919 210.109 59.9466C210.187 59.9013 210.268 59.8602 210.35 59.8235C210.433 59.7868 210.517 59.7547 210.603 59.727C210.689 59.6992 210.776 59.676 210.864 59.6575C210.953 59.6388 211.042 59.6248 211.132 59.6157C211.222 59.6066 211.312 59.6023 211.402 59.6028C211.493 59.6031 211.583 59.6082 211.672 59.6181C211.762 59.6282 211.851 59.6429 211.939 59.6622C212.814 59.847 213.568 60.3427 214.041 61.1067C214.335 61.5802 214.504 62.1739 214.314 62.7188C214.051 63.4759 213.234 64.0614 212.507 64.3259C211.766 64.5954 210.857 64.5825 210.077 64.6606C210.802 64.0704 211.527 63.611 211.629 62.6114C211.668 62.2263 211.593 61.9099 211.478 61.5423C211.112 61.1743 211.073 61.131 210.569 61.0259C209.945 61.1935 209.721 61.3517 209.259 61.8036C209.778 61.8118 210.353 61.8149 210.815 62.0731C211.085 62.2235 211.061 62.3653 211.152 62.6376C210.691 63.8427 209.558 64.3099 208.487 64.8645C208.532 63.9468 208.605 63.0313 208.705 62.1181Z" fill="#CCCCCC"/>
    <path d="M212.809 64.8032C212.824 64.8829 212.838 64.963 212.854 65.0427C213.029 65.9067 213.305 66.504 213.772 67.2458C213.313 68.304 211.19 69.4274 210.123 69.831C209.482 70.0735 209.111 69.9739 208.528 69.6677C208.201 69.4962 207.964 69.2376 207.588 69.188L206.915 69.2208C207.533 67.954 208.097 65.5646 209.559 65.1439C210.563 64.8548 211.764 64.9552 212.809 64.8032Z" fill="#88FE00"/>
    <path d="M192.048 87.3738C192.488 87.5937 192.744 87.7511 193.056 88.1347C193.516 91.8339 193.195 95.9234 193.199 99.655C193.202 102.68 193.599 107.578 193 110.446C192.516 110.314 192.405 110.301 192.061 109.946C191.774 107.298 191.976 104.485 191.981 101.816C191.971 97.002 191.993 92.1878 192.048 87.3738Z" fill="white"/>
    <path d="M205.117 86.8813C205.257 87.02 205.362 87.1083 205.462 87.2888C205.51 87.3759 205.548 87.47 205.569 87.5669C205.76 88.4005 205.315 91.8169 205.297 92.9786C205.267 94.8528 205.491 109.423 205.182 110.108C205.071 110.352 204.687 110.38 204.449 110.458C204.248 110.117 204.075 109.83 204.029 109.429C203.751 107.033 204.031 104.318 204.042 101.894C204.061 97.4056 203.864 92.7821 204.193 88.313C204.248 87.5724 204.587 87.3345 205.117 86.8813Z" fill="white"/>
    <path d="M205.636 336.906C211.122 336.868 217.752 336.343 223.044 336.791C223.093 337.636 223.315 338.776 222.895 339.531C222.24 339.904 221.77 339.82 221.029 339.783C218.474 339.441 215.462 339.673 212.882 339.78C210.453 339.9 208.02 339.868 205.588 339.862C205.623 338.877 205.639 337.892 205.636 336.906Z" fill="#FE230C"/>
    <path d="M176.15 336.923C179.803 336.681 191.044 336.214 194.22 337.006C194.632 337.889 194.732 338.763 194.86 339.715C192.431 339.673 189.565 339.349 187.178 339.752C184.464 339.966 181.421 339.972 178.709 339.711L178.502 339.691C178.057 340.064 177.582 343.921 177.261 344.932C177.206 343.335 177.227 341.756 177.282 340.159C176.257 339.284 176.329 338.188 176.15 336.923Z" fill="#FE230C"/>
    <path d="M204.521 331.299C206.636 332.136 224.091 331.638 227.743 331.629C227.72 333.207 227.655 334.755 227.439 336.319C219.736 336.461 212.033 336.521 204.329 336.499C204.335 334.755 204.375 333.039 204.521 331.299Z" fill="white"/>
    <path d="M172.457 331.605C180.181 331.799 187.952 331.638 195.682 331.629C195.672 333.248 195.674 334.868 195.69 336.488L180.334 336.459C177.8 336.472 175.25 336.675 172.721 336.52C172.105 335.801 172.439 332.631 172.457 331.605Z" fill="white"/>
    <path d="M193.054 72.1531C194.242 72.7183 195.45 73.3128 196.718 73.6796C199.425 74.4621 201.377 73.5234 203.714 72.2632C203.694 73.5386 203.672 75.0148 203.966 76.257C204.328 77.78 205.018 78.4527 206.317 79.2464C204.568 80.9003 202.924 82.6537 201.387 84.5066C200.186 85.9675 199.171 87.4476 198.322 89.1402C195.867 85.7699 193.504 82.3234 190.601 79.3167C191.074 78.9671 191.575 78.6066 191.969 78.1667C193.235 76.7554 193.131 73.9378 193.054 72.1531Z" fill="#CCCCCC"/>
    <path d="M181.146 73.0918C181.421 73.0648 181.413 73.0582 181.739 73.0703C181.955 73.0804 182.168 73.1035 182.381 73.1394C182.593 73.1756 182.803 73.2244 183.009 73.2859C183.216 73.3474 183.417 73.4212 183.615 73.5074C183.812 73.5936 184.004 73.6914 184.189 73.8007C186.283 75.0238 190.017 79.4937 191.746 81.4894C192.784 82.6882 199.349 90.6695 199.27 91.7601C198.841 92.0945 198.45 92.4343 198.058 92.8117C198.093 93.2035 198.108 93.4605 198.036 93.8523C197.961 93.7929 197.894 93.723 197.812 93.6742C196.525 92.9089 195.22 91.4871 194.05 90.4832C193.975 90.2906 193.993 90.3808 193.985 90.1523C193.939 88.7558 193.739 87.6359 192.702 86.5937C192.161 86.5019 192.196 86.5335 191.738 86.8492C191.421 87.4773 191.49 88.3761 191.46 89.0722C187.851 85.9042 183.152 83.6316 178.554 82.3105C177.572 82.0281 175.953 82.2726 175.167 81.6972C174.688 81.3472 174.38 80.6125 174.254 80.0507C173.96 78.7472 174.308 77.2472 175.085 76.1714C176.495 74.2195 178.897 73.5187 181.146 73.0918Z" fill="white"/>
    <path d="M189.065 57.4222C189.388 57.3292 189.712 57.246 190.036 57.1605C191.564 56.7582 192.939 56.9824 194.487 56.8851C194.939 56.5949 194.962 56.6242 195.105 56.1124C193.92 53.8488 190.754 57.1839 189.031 56.6316C188.841 55.2632 193.222 53.0105 194.246 51.9234C195.168 50.9445 195.847 49.6574 196.304 48.4031L196.901 48.7781C199.242 50.2609 201.927 51.2765 204.432 52.4777L205.089 52.2429C206.192 52.6511 207.224 53.4261 208.219 54.0578C208.393 54.9082 208.508 55.7765 208.647 56.6335L208.411 57.946C207.836 57.3109 207.285 56.7144 206.511 56.3234C205.155 55.639 203.018 54.8257 201.537 55.2816C201.125 55.671 201.106 55.7531 200.961 56.3062C201.504 57.2124 204.945 56.3628 206.135 56.7605C206.875 57.0078 207.487 57.5132 207.821 58.2242C208.76 60.2242 208.204 64.8531 207.422 66.8644C206.509 69.2187 204.62 71.2847 202.299 72.3039C199.875 73.3679 197.05 73.2304 194.634 72.2179C191.476 70.8945 189.185 68.2332 187.948 65.1023C188.525 62.5609 188.788 60.0093 189.065 57.4222Z" fill="#CCCCCC"/>
    <path d="M202.914 58.752C203.478 58.7648 204.273 58.8129 204.636 59.3207C204.94 59.7473 204.957 60.1172 204.853 60.6141C204.722 61.2383 204.225 61.6445 203.739 61.9973C203.1 61.9137 202.429 61.8262 201.998 61.2781C201.693 60.891 201.619 60.45 201.741 59.9781C201.896 59.3766 202.431 59.0648 202.914 58.752Z" fill="black"/>
    <path d="M191.475 58.7715C192.01 58.7231 192.618 58.709 193.097 58.9903C193.545 59.2532 193.747 59.6274 193.834 60.1254C193.977 60.9532 193.511 61.677 193.078 62.3309C192.672 62.2786 192.4 62.2231 192.037 62.0176C191.455 61.6887 191.029 61.0872 190.89 60.4403C190.719 59.6465 191.051 59.3719 191.475 58.7715Z" fill="black"/>
    <path d="M178.709 339.71C181.421 339.972 184.464 339.966 187.178 339.751C187.14 341.054 186.768 343.717 187.302 344.865C187.534 345.362 187.863 345.505 188.375 345.633C189.8 345.986 193.213 345.95 194.351 344.996C195.039 344.42 195.096 342.632 195.215 341.785C195.704 342.571 196.266 343.392 196.544 344.28C197.679 347.908 196.956 356.861 196.866 360.946L167.602 360.93C163.584 360.932 159.552 361.065 155.538 360.983C157.706 358.326 160.997 356.512 163.838 354.665C169.688 355.154 175.25 356.345 180.971 357.595C181.581 357.057 182.375 356.347 182.54 355.519C182.653 354.948 182.502 354.406 182.154 353.947C180.133 351.284 172.795 350.662 169.713 350.223C170.455 349.631 171.139 349.166 171.987 348.735C174.577 348.962 177.766 349.319 180.27 349.967C181.587 350.308 182.863 350.8 184.179 351.144C185.163 351.402 186.53 351.563 187.408 350.908C187.776 350.633 187.984 350.23 188.049 349.779C188.177 348.87 187.793 347.923 187.259 347.205C185.427 344.744 180.949 344.459 178.12 344.117C178.464 342.645 178.745 341.228 178.709 339.71Z" fill="#00CE38"/>
    <path d="M212.882 339.78C215.462 339.673 218.474 339.441 221.029 339.783C221.214 340.305 221.306 340.577 221.733 340.957C222.243 341.095 222.914 341.195 223.322 341.541C223.67 341.837 223.745 342.833 223.766 343.269C223.774 343.442 223.761 343.826 223.61 343.948C222.46 344.879 215.914 344.102 213.301 347.154C212.778 347.765 212.381 348.753 212.516 349.57C212.591 350.031 212.811 350.54 213.234 350.793C213.817 351.142 215.164 351.219 215.844 351.114C217.008 350.934 218.184 350.409 219.339 350.125C222.047 349.457 224.947 348.872 227.716 348.556C229.689 348.33 230.266 348.729 231.75 349.899C228.696 350.655 221.603 351.162 219.429 353.221C218.902 353.72 218.6 354.429 218.656 355.157C218.663 355.234 218.673 355.311 218.688 355.387C218.702 355.463 218.72 355.538 218.741 355.612C218.763 355.686 218.788 355.759 218.817 355.83C218.846 355.902 218.879 355.972 218.915 356.04C218.951 356.108 218.99 356.175 219.033 356.239C219.076 356.304 219.121 356.366 219.17 356.425C219.219 356.485 219.271 356.543 219.325 356.597C219.38 356.652 219.437 356.703 219.497 356.752C219.954 357.123 220.518 357.272 221.099 357.258C223.33 357.203 225.912 356.308 228.125 355.848C231.067 355.25 234.028 354.77 237.008 354.408C239.56 355.941 242.582 358.486 244.299 360.916L202.689 360.947C202.714 358.174 202.961 355.41 203.039 352.639C203.108 350.162 202.874 347.525 203.315 345.082C203.458 344.292 203.861 343.608 204.251 342.918C204.621 343.629 205.216 345.111 205.956 345.472C207.204 346.082 211.272 345.865 212.518 345.284C213.281 344.062 212.902 341.23 212.882 339.78Z" fill="#00CE38"/>
    <path d="M163.988 361.426L185.484 361.461C189.571 361.471 194.023 361.116 198.038 361.79C198.933 362.696 198.561 367.246 198.598 368.714C198.617 369.496 198.634 370.024 198.029 370.613C196.845 371.764 191.044 371.192 189.16 371.18L167.231 371.155C164.085 371.17 158.645 371.644 155.75 371.048C155.122 370.536 154.895 369.912 154.752 369.129C154.457 367.508 154.136 363.066 155.044 361.756C157.337 361.03 161.453 361.43 163.988 361.426Z" fill="white"/>
    <path d="M203.964 361.421C208.325 361.328 244.276 361.068 245.414 361.684C245.516 361.938 245.603 362.168 245.65 362.439C245.891 363.82 246.106 369.636 245.181 370.598C244.574 371.229 243.62 371.16 242.822 371.164L214.953 371.187C211.131 371.2 207.219 371.457 203.41 371.309C202.985 371.293 202.097 371.279 201.756 370.977C201.186 370.47 201.037 369.365 200.975 368.648C200.844 367.12 200.435 362.886 201.419 361.693C202.234 361.376 203.101 361.435 203.964 361.421Z" fill="white"/>
    <path d="M196.216 216.82C197.79 217.523 199.151 218.174 200.407 219.387C201.73 224.684 202.494 230.215 203.562 235.581C204.78 241.659 205.911 247.754 206.953 253.866C207.801 258.643 208.864 263.7 208.941 268.564C208.991 271.684 208.582 274.836 208.316 277.944C207.865 282.832 207.495 287.726 207.206 292.626C207.22 293 207.161 293.301 207.077 293.664L206.846 293.661C203.305 288.714 199.842 283.734 196.083 278.944C195.784 264.803 196.172 250.574 196.248 236.425C196.281 232.567 196.262 228.709 196.191 224.852C196.144 222.222 195.93 219.436 196.216 216.82Z" fill="#00CE38"/>
    <path d="M155.857 180.842C158.341 182.6 160.541 185.033 162.633 187.239C161.559 188.457 160.513 189.698 159.497 190.965C173.2 191.37 187.023 191.071 200.734 191.055C212.8 191.04 224.934 191.345 236.991 191.001C235.902 189.684 234.801 188.377 233.687 187.08C236.081 185.313 238.201 183.228 240.707 181.595L240.699 188.784L240.795 203.14L196.659 203.141C183.052 203.052 169.446 203.105 155.841 203.299L155.857 180.842Z" fill="white"/>
    <path d="M192.471 32.8047C192.692 30.8774 193.26 29.106 194.86 27.8616C195.787 27.1413 196.93 26.7903 198.097 26.9974C199.458 27.2391 200.801 28.2604 201.541 29.41C202.212 30.4531 202.499 31.7588 202.992 32.8923C205.025 31.9417 208.623 29.901 210.915 30.7883C211.544 31.0318 211.982 31.5287 212.241 32.1417C212.298 32.2753 212.349 32.4116 212.392 32.5506C212.436 32.6897 212.472 32.8306 212.5 32.9734C212.529 33.1163 212.55 33.2602 212.563 33.4053C212.576 33.5503 212.581 33.6957 212.579 33.8413C212.576 33.9869 212.566 34.132 212.548 34.2766C212.531 34.4211 212.505 34.5643 212.472 34.7062C212.439 34.848 212.398 34.9877 212.35 35.1252C212.302 35.2627 212.247 35.3973 212.185 35.529C211.845 36.2436 211.252 36.8837 210.715 37.4597C213.923 37.7888 217.145 38.6367 219.276 41.2642C220.682 42.9974 221.416 45.2618 221.133 47.4903C220.903 49.2978 220.122 50.6786 219.161 52.1747C221.105 52.1966 222.51 52.4259 223.921 53.9317C224.692 54.7548 225.169 55.8497 225.069 56.9888C224.997 57.8036 224.607 58.9181 223.991 59.4747C223.497 59.922 222.714 60.1728 222.265 60.6485C221.766 61.1782 221.557 62.6146 221.274 63.3329C220.35 65.6841 216.371 66.3071 214.128 66.1446C213.859 66.1251 213.78 66.0821 213.555 65.9997C212.857 64.2677 216.351 60.7415 213.387 59.3485C212.678 59.0153 211.303 59.0157 210.585 59.3466C209.964 59.6329 209.379 60.1454 208.837 60.5603C208.752 59.6751 208.72 58.7868 208.411 57.9462L208.647 56.6337C208.73 55.6599 208.843 54.4696 208.203 53.6392C207.581 52.8329 206.463 52.4849 205.737 51.7833C205.156 51.2212 205.012 50.3325 204.232 49.9896L203.961 50.0735C204.045 50.5829 204.208 50.9591 204.418 51.4247C203.61 51.7349 201.527 50.6091 200.645 50.2185C199.015 49.4962 197.503 48.5524 195.891 47.8157C194.198 52.5216 191.859 52.3372 188.809 55.2208C188.306 58.8321 188.453 66.656 185.428 68.9294C184.578 69.5685 183.53 69.7329 182.498 69.5345C181.169 69.2786 179.922 68.4759 179.178 67.3368C178.635 66.5063 178.532 65.4407 178.396 64.4821C176.947 65.3052 174.636 66.7782 172.898 66.3388C172.837 66.3237 172.777 66.305 172.718 66.2829C172.658 66.2608 172.601 66.2353 172.545 66.2064C172.489 66.1772 172.435 66.1449 172.383 66.1095C172.331 66.0741 172.281 66.0356 172.233 65.9942C172.185 65.9528 172.141 65.9088 172.098 65.8622C172.056 65.8153 172.016 65.7662 171.98 65.7149C171.944 65.6634 171.91 65.61 171.88 65.5548C171.85 65.4993 171.823 65.4423 171.8 65.3837C171.343 64.2692 171.764 62.9118 171.987 61.7778C170.801 61.3364 168.858 60.8774 168.286 59.6177C168.083 59.1716 168.169 58.6829 168.372 58.2536C169.579 55.7048 172.657 55.0657 174.283 53.0704C173.536 51.2368 168.455 50.6642 170.186 46.613C170.577 45.6993 171.366 45.2493 172.261 44.9235C173.291 44.5485 175.26 44.297 175.83 43.3095C176.16 41.2931 173.784 37.53 175.855 35.9558C176.937 35.1333 178.917 35.4109 180.137 35.7398C181.209 36.0287 182.279 36.5767 183.297 37.0217C183.197 35.0595 182.732 32.3471 184.257 30.8101C184.583 30.4824 184.982 30.2166 185.355 29.945C188.551 30.1381 189.932 31.0596 192.471 32.8047Z" fill="#88FE00"/>
    <path d="M185.677 162.301C188.651 162.127 191.689 162.25 194.668 162.253L211.021 162.278C214.343 165.371 217.656 169.494 220.669 172.942C225.842 178.792 230.982 184.672 236.09 190.58C227.677 190.706 219.253 190.603 210.84 190.595L160.411 190.566C165.442 184.662 170.79 179.007 175.969 173.234C179.207 169.625 182.277 165.744 185.677 162.301Z" fill="white"/>
    <path d="M195.088 203.714L215.903 203.711C216.127 204.818 216.395 205.914 216.709 206.999C217.024 208.083 217.382 209.153 217.785 210.208C218.187 211.262 218.633 212.299 219.121 213.317C219.61 214.335 220.14 215.331 220.711 216.305C224.061 221.942 228.734 225.805 235.1 227.454C234.82 236.358 234.842 245.314 234.797 254.223C234.772 259.262 234.868 264.346 234.526 269.375C234.16 274.755 233.399 280.084 232.806 285.44L229.366 316.61C228.932 320.502 228.344 324.391 227.965 328.287C227.833 329.217 227.775 330.158 227.699 331.094L216.427 331.121C213.361 331.149 208.095 331.684 205.254 330.822C204.351 329.176 209.462 275.572 209.488 269.126C209.514 262.575 207.881 255.738 206.699 249.309C204.758 239.231 202.886 229.14 201.083 219.037C199.62 217.863 197.936 217.006 196.291 216.122C195.571 212.017 195.17 207.881 195.088 203.714Z" fill="#CCCCCC"/>
    <path d="M223.587 271.16C226.146 270.686 228.388 269.734 230.678 268.515C231.607 269.369 232.709 270.612 232.746 271.964C232.76 272.451 232.643 272.843 232.277 273.17C231.665 273.716 230.458 273.905 229.662 273.803C228.779 273.689 228.112 273.173 227.621 272.451C227.26 271.921 227.003 271.189 226.391 270.928C225.38 271.055 224.616 271.38 223.587 271.16Z" fill="white"/>
    <path d="M223.587 271.161C220.888 271.233 218.584 271.101 216.01 270.199C214.839 269.788 213.49 269.322 212.921 268.137C212.931 267.691 212.901 267.488 213.163 267.107C214.139 265.686 217.081 265.013 218.721 264.743C223.015 264.034 228.452 264.61 232.071 267.18C231.594 267.613 231.138 268.065 230.678 268.515C228.388 269.734 226.146 270.686 223.587 271.161Z" fill="black"/>
    <path d="M181.893 203.725L194.495 203.723C194.587 206.054 194.704 208.376 194.945 210.697C195.151 212.669 195.481 214.637 195.528 216.622C195.669 222.549 195.534 228.511 195.525 234.441C195.5 249.583 195.328 264.745 195.51 279.883L195.753 315.321C195.777 320.528 196.203 325.863 195.885 331.052L172.541 331.098C172.36 325.468 171.491 319.777 171.03 314.153C169.562 297.322 168 280.501 166.344 263.688C168.167 263.685 169.961 263.567 171.762 263.284L171.73 262.798C169.95 263.147 168.072 263.288 166.259 263.311L164.651 245.318C164.174 239.517 163.791 233.66 163.053 227.887C169.615 225.955 174.553 221.386 177.818 215.42C178.315 214.509 178.774 213.58 179.194 212.632C179.615 211.684 179.996 210.72 180.337 209.74C180.679 208.761 180.979 207.769 181.239 206.765C181.499 205.761 181.717 204.747 181.893 203.725Z" fill="#CCCCCC"/>
    <path d="M171.718 261.826C176.1 264.004 179.814 264.308 184.304 262.11C185.755 261.399 187.17 260.617 188.754 260.244C188.828 260.227 188.901 260.211 188.975 260.195C189.201 261.29 189.371 261.982 188.723 262.964C187.489 264.834 184.893 265.601 182.787 265.967C179.743 266.496 175.45 266.48 172.812 264.67C172.486 264.446 171.927 264.083 171.822 263.677C171.788 263.549 171.782 263.415 171.762 263.283L171.73 262.798L171.873 262.44L171.64 262.137L171.718 261.826Z" fill="white"/>
    <path d="M171.718 261.827C171.135 261.161 170.233 261.021 169.571 260.425C169.472 259.844 169.461 259.722 169.655 259.17C170.046 258.792 174.066 257.06 174.855 256.749C178.08 255.474 183.242 256.897 186.238 258.27C187.07 258.651 188.649 259.333 188.975 260.195C188.902 260.211 188.828 260.227 188.754 260.244C187.17 260.618 185.756 261.399 184.304 262.11C179.814 264.308 176.1 264.004 171.718 261.827Z" fill="black"/>
    <path d="M215.793 72.7161C215.977 72.7188 216.162 72.7247 216.345 72.7368C218.642 72.8879 220.81 73.7418 222.317 75.5497C222.879 76.2239 223.326 77.0708 223.182 77.975C223.01 79.052 222.144 79.9008 221.298 80.511C219.423 81.8637 216.997 82.4606 214.918 83.4575C211.844 84.9321 208.971 86.8907 206.261 88.9442C206.262 88.2836 206.366 87.4024 205.908 86.8602C205.571 86.4618 205.365 86.4801 204.886 86.443C204.014 86.8747 203.655 87.3348 203.326 88.2434C203.732 90.4657 203.544 92.8368 203.515 95.0911C203.455 99.8067 203.192 104.622 203.376 109.33C203.401 109.976 203.57 110.327 204.053 110.771C204.625 110.911 204.656 110.898 205.203 110.677C205.498 110.357 205.717 110.054 205.792 109.612C206.062 108.006 205.764 105.907 205.762 104.248C205.758 99.4715 205.715 94.6711 205.921 89.8993C209.31 86.393 216.03 83.0622 220.745 81.7653C225.138 83.1493 228.548 85.7278 231.483 89.2391C232.442 90.3864 233.254 91.602 233.972 92.9129C235.403 95.5239 236.555 98.3305 237.857 101.011L246.534 118.821C249.07 123.981 251.547 129.17 253.965 134.386C255.49 137.611 257.259 140.895 258.333 144.302C259.351 147.534 259.511 151.337 259.184 154.69C257.573 171.198 244.877 177.346 233.418 186.709C228.968 181.602 224.416 176.585 220.051 171.404C222.5 168.254 225.211 165.272 227.815 162.251C230.551 159.076 233.229 155.817 236.136 152.797C234.137 144.988 232.26 137.15 230.503 129.282C229.748 126.014 228.984 121.035 227.762 118.1L227.549 118.053C227.213 120.556 234.563 147.326 235.475 152.423L235.522 152.693C230.055 158.557 224.89 164.832 219.693 170.94C216.725 168.025 214.233 164.624 211.226 161.756C207.153 161.598 203.006 161.738 198.926 161.738C194.462 161.734 189.982 161.652 185.521 161.796C182.748 164.279 180.336 167.773 177.631 170.492C172.275 164.489 167.271 158.128 162.002 152.038C163.971 143.757 165.67 135.401 167.5 127.088C167.989 124.869 168.507 120.795 169.195 118.84C169.214 118.786 169.238 118.735 169.26 118.682L168.91 118.435L169.066 118.127C168.576 118.797 162.279 148.831 161.502 152.174C163.234 154.3 165.123 156.311 166.895 158.407C170.4 162.551 173.828 166.754 177.364 170.873C172.747 176.296 167.953 181.763 162.931 186.813C158.765 182.399 155.425 180.216 150.899 176.541C144.286 171.173 139.679 163.409 138.824 154.883C138.46 151.259 138.762 147.044 139.897 143.575C141.226 139.516 143.335 135.834 145.192 132.008C148.403 125.304 151.677 118.631 155.013 111.989C157.47 106.904 159.954 101.832 162.465 96.7727C163.878 93.9168 165.209 90.4735 167.245 88.0329C169.202 85.6864 172.891 82.6551 176.083 82.4973C180.378 82.2848 188.224 86.9856 191.425 89.7618C191.426 92.3622 191.141 108.623 191.443 109.645C191.577 110.098 191.971 110.582 192.417 110.75C192.874 110.923 193.037 110.805 193.414 110.584C193.708 110.065 193.782 109.549 193.817 108.961C193.944 106.867 193.766 104.689 193.748 102.586C193.716 98.7184 193.755 94.8481 193.769 90.9805C195.345 92.2891 196.823 93.5852 198.035 95.2473C199.783 92.6434 201.268 92.0711 202.966 89.9485C201.933 90.4512 201.127 90.9626 200.251 91.7063C199.753 90.8844 199.139 90.1442 198.547 89.3887C199.357 88.195 200.16 86.9868 201.036 85.8403C203.342 82.8196 210.46 75.1235 213.387 73.4004C214.15 72.9508 214.926 72.8348 215.793 72.7161Z" fill="white"/>
    <path d="M161.478 91.1105L164.669 91.0925L146.217 128.578C143.918 133.335 140.958 138.132 139.455 143.207C139.296 143.743 139.152 144.283 139.022 144.827C138.892 145.371 138.777 145.918 138.677 146.468C138.576 147.017 138.49 147.569 138.419 148.124C138.348 148.679 138.291 149.234 138.249 149.792C138.208 150.349 138.181 150.907 138.169 151.466C138.157 152.025 138.16 152.584 138.178 153.143C138.196 153.702 138.228 154.259 138.276 154.816C138.323 155.373 138.385 155.929 138.462 156.482C140.051 167.53 146.606 174.116 155.127 180.48C155.377 188.344 155.246 196.282 155.125 204.151L160.701 204.06C160.77 207.597 161.103 211.148 161.355 214.676C161.882 222.526 162.565 230.363 163.406 238.186C163.994 244.168 164.292 250.176 164.907 256.157C165.596 262.871 166.532 269.623 166.878 276.362L139.502 276.327L119.387 276.362C116.432 276.368 112.591 276.742 109.742 276.218C108.988 276.079 108.39 275.698 107.864 275.149C107.278 274.536 106.926 273.785 106.871 272.939C106.707 270.425 106.826 267.828 106.824 265.305L106.823 251.305L106.8 207.706L106.844 135.348C106.84 121.552 106.548 107.694 106.841 93.905C107.094 93.53 107.356 93.1695 107.669 92.8417C108.534 91.9382 109.373 91.4437 110.62 91.2773C112.504 91.0257 114.543 91.1874 116.442 91.2031L125.803 91.2308L161.478 91.1105Z" fill="#00CE38"/>
    <path d="M241.218 181.967C258.258 182.351 275.345 181.958 292.391 182.016C294.432 182.022 296.355 181.896 297.87 183.515C298.769 184.475 298.752 185.365 298.819 186.615C299.203 193.688 298.875 200.963 298.877 208.057L298.882 250.308L298.861 323.178C298.855 335.632 298.97 348.097 298.824 360.549C298.255 361.39 297.692 361.895 296.835 362.444C293.516 362.629 290.142 362.509 286.816 362.503L271.079 362.539C268.127 362.544 265.088 362.696 262.144 362.463C260.596 362.341 259.791 361.723 258.724 360.642C257.333 359.234 256.206 357.523 255.026 355.939L249.882 349.129C245.55 343.423 241.072 337.839 236.653 332.201C234.177 329.042 231.841 325.743 229.243 322.688C229.518 318.622 230.126 314.515 230.582 310.462L233.277 286.238C233.938 280.503 234.752 274.75 235.146 268.991C235.658 261.497 235.479 253.849 235.524 246.334L235.57 203.917L241.352 203.907C241.239 196.594 241.195 189.281 241.218 181.967Z" fill="#00CE38"/>
  </g>
</svg>
