<svg width="400" height="400" viewBox="0 0 400 400" fill="none" xmlns="http://www.w3.org/2000/svg">
  <g clip-path="url(#clip0_712_348)">
    <mask id="mask0_712_348" style="mask-type:luminance" maskUnits="userSpaceOnUse" x="0" y="0" width="400" height="400">
      <path d="M400 0H0V400H400V0Z" fill="white"/>
    </mask>
    <g mask="url(#mask0_712_348)">
      <mask id="mask1_712_348" style="mask-type:luminance" maskUnits="userSpaceOnUse" x="0" y="0" width="400" height="400">
        <path d="M400 0H0V400H400V0Z" fill="white"/>
      </mask>
      <g mask="url(#mask1_712_348)">
        <path d="M0 0H399.867H400V400H396.77H0V0Z" fill="#4B7147"/>
        <path d="M399.867 0H400V400H396.77C397.754 399.816 398.773 399.855 399.77 399.844C399.98 382.109 399.777 364.343 399.77 346.603L399.766 250.105L399.867 0Z" fill="#90B18E"/>
        <path d="M159.579 354.122L177.902 354.149C177.958 356.995 178.082 360.252 177.676 363.052C177.145 363.088 176.53 362.662 176.044 362.422C175.324 362.069 174.587 361.756 173.833 361.481C168.559 359.518 164.521 360.474 159.569 362.718C159.521 359.855 159.57 356.985 159.579 354.122Z" fill="#5F41B2"/>
        <path d="M188.898 248.446C189.905 250.727 190.593 253.215 191.386 255.582L195.021 266.316C196.528 270.835 198.702 276.265 199.89 280.749C200.043 281.325 200.241 281.664 199.937 282.184C198.264 282.184 196.556 282.5 194.886 282.653C192.882 282.837 190.875 282.846 188.864 282.862C188.859 271.4 188.711 259.906 188.898 248.446Z" fill="white"/>
        <path d="M249.638 353.106C250.393 353.398 261.915 362.603 262.988 363.638L263.71 366.468C261.752 366.568 259.742 366.448 257.78 366.446L245.215 366.447C240.403 366.479 235.591 366.466 230.779 366.408L230.808 360.996C236.925 358.082 243.361 355.668 249.638 353.106Z" fill="#5F41B2"/>
        <path d="M166.319 361.008C166.543 360.982 166.766 360.967 166.991 360.961C172.094 360.838 176.628 362.404 180.327 365.994C184.856 370.39 186.393 376.072 186.511 382.203L170.594 382.263L150.052 382.202C150.302 377.188 151.189 372.427 154.271 368.301C157.323 364.213 161.28 361.723 166.319 361.008Z" fill="white"/>
        <path d="M263.33 363.736C267.913 365.247 272.568 366.581 276.919 368.701C283.572 371.943 287.136 374.81 289.569 381.887L255.833 381.906L230.851 382.016C230.861 376.909 230.836 371.802 230.777 366.696C235.28 366.894 239.82 366.796 244.327 366.8C250.864 366.834 257.401 366.817 263.939 366.752C263.769 365.741 263.542 364.739 263.33 363.736Z" fill="white"/>
        <path d="M193.873 204.99C196.079 211.225 198.018 217.572 200.108 223.849C201.118 227.754 202.653 231.654 203.932 235.487L211.252 257.44L233.915 324.832L241.254 346.275C242.167 349.006 243.45 351.931 244.088 354.725C243.432 355.456 229.308 361.097 227.36 361.927C224.121 353.032 221.388 343.926 218.405 334.941L203.868 291.545C201.152 283.118 198.364 274.715 195.503 266.337C193.428 260.06 191.438 253.714 189.197 247.496C188.618 245.757 188.654 243.816 188.648 242.003C188.64 239.323 188.637 236.64 188.931 233.973C189.253 231.037 189.924 228.105 190.472 225.204C191.726 218.563 193.17 211.703 193.873 204.99Z" fill="white"/>
        <path d="M204.769 175.899C210.72 175.867 215.669 177.104 220.016 181.407C223.202 184.561 225.546 188.303 227.284 192.413C227.474 192.941 227.602 193.567 228 193.97C228.683 195.214 229.484 196.88 229.679 198.28C229.35 199.157 235.787 218.904 236.729 221.595L236.913 221.682L236.966 221.643C237.966 223.821 238.505 226.464 239.181 228.78C240.789 234.294 242.275 239.847 243.911 245.351C246.422 245.086 248.256 244.518 250.4 243.176L250.544 243.536C248.563 244.934 246.436 245.659 244.017 245.79C245.37 250.564 246.693 255.346 247.984 260.138C248.672 262.694 249.644 265.526 249.927 268.145L249.714 268.352C250.321 272.388 251.877 276.51 252.891 280.482L260.145 309.219C262.537 318.582 264.681 328.037 267.336 337.327C267.956 339.497 268.28 341.977 269.169 344.036C266.886 345.484 246.427 354.339 244.088 354.725C243.45 351.931 242.167 349.006 241.254 346.275L233.915 324.832L211.252 257.44L203.933 235.487C202.653 231.654 201.118 227.754 200.108 223.849C200.181 221.986 195.123 207.447 194.1 204.536C195.153 199.869 195.773 195.05 196.563 190.328C197.338 185.696 198.298 181.077 198.886 176.418C200.842 176.359 202.806 176.011 204.769 175.899Z" fill="#685C74"/>
        <path d="M161.945 62.0676C161.802 63.6285 160.303 65.4301 159.142 66.3633C157.035 68.0562 154.343 68.4652 151.853 69.3148C147.432 70.823 143.948 74.0062 143.34 78.8258C142.563 84.9836 145.081 89.15 139.085 93.8687C134.187 97.7238 126.787 98.4781 125.852 105.941C124.858 113.882 131.701 121.047 123.64 127.578C118.751 131.539 112.65 133.124 111.847 140.399C111.425 144.22 112.665 147.635 115.074 150.574C117.952 154.086 123.243 157.597 122.652 162.775C121.881 169.521 114.477 172.816 115.193 180.769C115.433 183.441 116.652 186.004 118.263 188.121C120.103 190.538 123.963 193.689 127.052 194.103C127.117 194.111 127.183 194.116 127.248 194.127C127.375 194.147 127.502 194.173 127.629 194.196C128.973 197.552 130.695 200.746 132.283 203.99L139.999 219.852C141.128 222.179 142.392 224.496 143.373 226.885C144.484 229.593 144.615 232.69 145.589 235.48C146.697 238.659 148.471 241.605 148.433 245.045C147.913 247.9 148.267 251.328 148.268 254.257C148.29 260.598 148.272 266.939 148.216 273.279C147.003 272.732 145.795 272.175 144.59 271.61C118.555 259.318 98.9267 235.91 89.3208 209.009C89.0134 208.143 88.7161 207.273 88.4298 206.399C88.1435 205.525 87.8677 204.648 87.6028 203.768C87.3376 202.887 87.0833 202.003 86.84 201.117C86.5962 200.23 86.3634 199.341 86.1415 198.448C85.9196 197.556 85.7087 196.661 85.5087 195.764C85.3083 194.867 85.1193 193.967 84.9411 193.065C84.763 192.163 84.5958 191.259 84.4396 190.352C84.2833 189.446 84.138 188.539 84.004 187.629C83.87 186.719 83.747 185.808 83.6349 184.895C83.5228 183.983 83.422 183.069 83.3325 182.154C83.2427 181.239 83.1642 180.323 83.0966 179.405C83.029 178.489 82.9728 177.571 82.9278 176.652C82.8829 175.734 82.8489 174.815 82.8263 173.896C82.8036 172.977 82.7919 172.057 82.7915 171.138C82.7911 170.219 82.8021 169.299 82.8243 168.38C82.8462 167.461 82.8794 166.542 82.9239 165.623C82.9681 164.705 83.0235 163.787 83.0903 162.87C83.1571 161.954 83.2353 161.037 83.3243 160.122C83.413 159.207 83.5134 158.293 83.6247 157.38C83.736 156.467 83.8583 155.556 83.9915 154.646C84.1251 153.737 84.2696 152.829 84.4251 151.923C84.5806 151.016 84.747 150.112 84.9247 149.21C85.1025 148.308 85.2907 147.408 85.4903 146.51C85.69 145.612 85.9001 144.718 86.1212 143.825C86.3427 142.932 86.5747 142.043 86.8173 141.156C87.0603 140.269 87.3138 139.386 87.5782 138.505C87.8427 137.624 88.1181 136.747 88.4036 135.873C88.6892 134.999 88.9857 134.129 89.2927 133.262C89.5993 132.395 89.9169 131.532 90.245 130.673C90.5728 129.814 90.911 128.959 91.2599 128.109C91.6087 127.258 91.9677 126.411 92.3368 125.569C92.706 124.727 93.0857 123.89 93.4755 123.057C107.907 92.7473 130.467 73.2484 161.945 62.0676Z" fill="white"/>
        <path d="M218.267 62.007C225.113 62.6726 231.909 64.8262 238.26 67.4191C239.299 67.8344 240.332 68.2652 241.358 68.7125C242.384 69.1598 243.403 69.6226 244.414 70.1019C245.426 70.5808 246.43 71.0754 247.426 71.5859C248.422 72.0961 249.41 72.6219 250.39 73.1629C251.37 73.7039 252.341 74.2605 253.303 74.832C254.265 75.4035 255.218 75.9898 256.163 76.591C257.107 77.1922 258.041 77.8078 258.966 78.4383C259.891 79.0687 260.806 79.7133 261.711 80.3723C262.615 81.0312 263.509 81.7039 264.393 82.3906C265.277 83.0777 266.15 83.7781 267.012 84.4918C267.873 85.2058 268.724 85.9332 269.563 86.6738C270.403 87.4144 271.23 88.168 272.046 88.9344C272.861 89.7008 273.665 90.4797 274.456 91.2711C275.248 92.0625 276.027 92.866 276.793 93.682C277.559 94.4976 278.313 95.325 279.053 96.1644C279.793 97.0039 280.521 97.8543 281.235 98.7164C300.728 122.388 309.148 151.412 306.204 181.891C306.113 182.803 306.01 183.714 305.896 184.624C305.782 185.534 305.658 186.441 305.522 187.348C305.386 188.255 305.24 189.159 305.082 190.062C304.925 190.966 304.756 191.867 304.576 192.766C304.397 193.664 304.207 194.561 304.006 195.456C303.804 196.35 303.592 197.242 303.37 198.131C303.147 199.02 302.913 199.907 302.669 200.79C302.425 201.674 302.17 202.554 301.904 203.432C301.639 204.309 301.363 205.183 301.076 206.054C300.79 206.925 300.492 207.792 300.184 208.655C299.877 209.519 299.559 210.379 299.23 211.234C298.902 212.09 298.563 212.942 298.214 213.79C297.865 214.637 297.505 215.481 297.136 216.32C296.766 217.159 296.386 217.993 295.997 218.823C295.607 219.652 295.207 220.477 294.797 221.297C294.388 222.117 293.968 222.932 293.539 223.742C293.109 224.552 292.67 225.357 292.221 226.156C291.772 226.955 291.314 227.749 290.845 228.537C290.377 229.325 289.9 230.107 289.413 230.884C288.925 231.661 288.429 232.432 287.923 233.196C287.417 233.961 286.902 234.719 286.378 235.471C285.854 236.223 285.321 236.969 284.779 237.708C284.236 238.447 283.685 239.18 283.125 239.905C282.566 240.631 281.997 241.35 281.42 242.062C280.842 242.775 280.256 243.479 279.662 244.177C279.068 244.875 278.465 245.566 277.854 246.249C277.243 246.932 276.623 247.608 275.996 248.277C275.368 248.945 274.733 249.605 274.09 250.258C273.446 250.911 272.795 251.556 272.136 252.193C271.477 252.83 270.81 253.46 270.135 254.08C269.461 254.702 268.779 255.314 268.09 255.919C267.401 256.523 266.704 257.12 266.001 257.707C263.408 259.833 252.937 268.194 250.238 268.455L249.927 268.145C249.644 265.526 248.672 262.694 247.984 260.137C246.693 255.346 245.37 250.564 244.017 245.79C246.436 245.659 248.563 244.934 250.544 243.536C252.14 242.406 253.294 240.622 253.908 238.785C256.524 230.962 251.072 221.933 247.662 215.223L249.636 214.091C249.956 207.95 250.378 201.679 249.337 195.582C252.248 195.427 254.89 194.784 257.441 193.339C257.703 193.188 257.961 193.03 258.216 192.865C258.47 192.701 258.72 192.53 258.966 192.353C259.211 192.176 259.453 191.993 259.689 191.804C259.926 191.615 260.157 191.42 260.384 191.219C260.611 191.019 260.833 190.812 261.05 190.601C261.266 190.389 261.477 190.172 261.683 189.95C261.889 189.728 262.089 189.5 262.284 189.268C262.478 189.036 262.666 188.799 262.849 188.557C263.031 188.316 263.208 188.07 263.378 187.819C263.548 187.569 263.713 187.314 263.87 187.055C264.027 186.797 264.179 186.534 264.323 186.268C264.467 186.002 264.605 185.732 264.736 185.459C264.867 185.186 264.991 184.91 265.108 184.631C265.225 184.352 265.336 184.07 265.439 183.785C265.542 183.5 265.638 183.212 265.727 182.923C265.815 182.634 265.897 182.342 265.971 182.048C267.761 175.237 264.223 172.77 261.23 167.498C255.616 157.612 267.527 153.535 269.886 144.984C269.963 144.712 270.029 144.438 270.085 144.162C270.141 143.886 270.188 143.607 270.224 143.328C270.261 143.048 270.287 142.768 270.303 142.486C270.319 142.204 270.325 141.923 270.322 141.641C270.318 141.359 270.304 141.077 270.279 140.796C270.255 140.515 270.221 140.236 270.177 139.957C270.132 139.679 270.078 139.402 270.014 139.127C269.95 138.853 269.876 138.58 269.792 138.311C267.146 129.586 257.359 129.282 255.188 122.112C253.454 116.386 258.473 110.446 255.779 104.447C255.479 103.78 255.146 103.102 254.748 102.489C250.831 96.45 242.119 96.4324 239.272 90.5769C236.848 85.591 240.137 80.2012 237.23 75.2176C233.912 69.5285 229.674 70.2832 224.527 68.7285C221.082 67.6879 219.809 64.9285 218.267 62.007Z" fill="white"/>
        <path d="M168.134 175.301C177.752 176.801 188.73 177.76 198.418 176.573C197.81 181.913 196.753 187.22 195.844 192.516L191.3 218.78C190.452 223.702 189.237 228.643 188.644 233.595C188.105 238.093 188.158 243.023 188.446 247.536C188.129 248.088 188.457 343.621 188.457 353.629C182.627 353.525 176.781 353.648 170.95 353.659L148.766 353.621C149.052 327.104 148.675 300.57 148.713 274.051C148.789 266.536 148.823 259.021 148.817 251.505C148.821 248.807 149.231 244.643 148.631 242.162C147.86 239.524 146.438 237.039 145.647 234.367C143.148 225.93 142.657 216.175 144.9 207.638C145.661 204.745 146.968 201.989 147.696 199.125L147.766 198.845C148.213 198.201 148.505 197.414 148.828 196.702C150.05 194.496 151.252 192.265 152.689 190.191C156.616 184.527 162.204 178.936 168.134 175.301Z" fill="white"/>
        <path d="M161.945 62.0676C163.263 59.2293 164.95 57.1726 167.988 56.0972C170.785 55.1066 174.157 55.5324 176.764 54.0812C178.759 52.9715 179.944 50.9429 181.609 49.4515C186.22 45.3215 193.672 45.2402 199.035 47.9156C203.213 50.0008 203.311 52.9566 206.08 55.0047C208.072 56.4777 211.993 55.6105 215.061 58.2496C216.287 59.3043 217.209 60.7797 218.267 62.007C219.809 64.9285 221.082 67.6879 224.527 68.7285C229.674 70.2832 233.912 69.5285 237.23 75.2176C240.137 80.2011 236.848 85.591 239.272 90.5769C242.119 96.4324 250.831 96.45 254.748 102.489C255.146 103.102 255.479 103.78 255.779 104.447C258.473 110.446 253.454 116.386 255.188 122.112C257.359 129.282 267.146 129.586 269.792 138.311C269.876 138.58 269.95 138.853 270.014 139.127C270.078 139.402 270.132 139.678 270.177 139.957C270.221 140.236 270.255 140.515 270.279 140.796C270.303 141.077 270.318 141.359 270.321 141.641C270.325 141.923 270.319 142.204 270.303 142.486C270.287 142.768 270.261 143.048 270.224 143.328C270.188 143.607 270.141 143.886 270.085 144.162C270.029 144.438 269.962 144.712 269.886 144.984C267.527 153.535 255.616 157.612 261.23 167.498C264.223 172.77 267.761 175.237 265.971 182.048C265.897 182.342 265.815 182.634 265.727 182.923C265.638 183.212 265.542 183.5 265.439 183.785C265.336 184.07 265.225 184.352 265.108 184.631C264.991 184.91 264.867 185.186 264.736 185.459C264.605 185.732 264.467 186.002 264.323 186.268C264.179 186.534 264.027 186.797 263.87 187.055C263.712 187.314 263.548 187.569 263.378 187.819C263.208 188.07 263.031 188.316 262.849 188.557C262.666 188.799 262.478 189.036 262.284 189.268C262.089 189.5 261.889 189.728 261.683 189.95C261.477 190.172 261.266 190.389 261.05 190.601C260.833 190.812 260.611 191.019 260.384 191.219C260.157 191.42 259.926 191.615 259.689 191.804C259.453 191.993 259.211 192.176 258.966 192.353C258.72 192.53 258.47 192.701 258.216 192.865C257.961 193.03 257.703 193.188 257.441 193.339C254.89 194.784 252.248 195.427 249.337 195.582C250.378 201.679 249.956 207.95 249.636 214.091L247.662 215.223C251.072 221.933 256.524 230.962 253.908 238.785C253.294 240.622 252.139 242.406 250.544 243.536L250.4 243.176C248.256 244.518 246.422 245.086 243.911 245.351C242.275 239.847 240.789 234.294 239.181 228.78C238.505 226.464 237.966 223.821 236.966 221.643L236.912 221.682L236.729 221.595C235.787 218.904 229.35 199.157 229.679 198.28C229.484 196.88 228.683 195.214 228 193.97C227.602 193.567 227.474 192.941 227.284 192.412C225.546 188.303 223.202 184.561 220.016 181.407C215.669 177.103 210.72 175.867 204.769 175.899C202.805 176.011 200.841 176.359 198.886 176.418C198.298 181.077 197.337 185.696 196.563 190.328C195.773 195.05 195.153 199.869 194.1 204.536C195.123 207.447 200.18 221.986 200.108 223.849C198.018 217.572 196.079 211.225 193.873 204.99C193.17 211.703 191.726 218.563 190.472 225.204C189.924 228.105 189.254 231.037 188.931 233.973C188.637 236.64 188.64 239.323 188.648 242.003C188.654 243.816 188.618 245.757 189.197 247.496L188.446 247.536C188.158 243.023 188.105 238.093 188.644 233.595C189.237 228.643 190.452 223.702 191.3 218.78L195.844 192.516C196.754 187.22 197.81 181.912 198.418 176.573C188.73 177.76 177.752 176.801 168.134 175.301C162.204 178.936 156.616 184.527 152.689 190.191C151.252 192.265 150.05 194.496 148.828 196.702C148.505 197.414 148.213 198.201 147.766 198.845L147.696 199.125C146.968 201.989 145.661 204.745 144.9 207.637C142.657 216.175 143.148 225.93 145.647 234.367C146.438 237.039 147.86 239.524 148.631 242.162C148.556 243.32 148.537 244.477 148.518 245.637L148.432 245.045C148.471 241.605 146.697 238.659 145.589 235.48C144.615 232.69 144.484 229.593 143.373 226.885C142.392 224.496 141.128 222.178 139.999 219.852L132.283 203.99C130.695 200.746 128.973 197.552 127.629 194.196C127.502 194.173 127.375 194.147 127.248 194.127C127.183 194.116 127.117 194.111 127.052 194.103C123.963 193.689 120.103 190.538 118.263 188.121C116.652 186.004 115.433 183.441 115.193 180.769C114.477 172.816 121.881 169.521 122.652 162.775C123.243 157.597 117.952 154.086 115.074 150.574C112.665 147.635 111.425 144.22 111.846 140.399C112.65 133.124 118.751 131.539 123.64 127.578C131.701 121.047 124.858 113.882 125.852 105.941C126.787 98.4781 134.187 97.7238 139.085 93.8687C145.08 89.15 142.563 84.9836 143.339 78.8258C143.948 74.0062 147.432 70.823 151.853 69.3148C154.343 68.4652 157.035 68.0562 159.141 66.3633C160.303 65.4301 161.802 63.6285 161.945 62.0676Z" fill="black"/>
        <path d="M228 193.97C228.47 193.803 228.777 193.818 229.264 193.845C229.784 194.226 229.913 194.586 230.015 195.22C230.14 196.004 230.27 197.804 229.916 198.504L229.679 198.28C229.484 196.88 228.683 195.214 228 193.97Z" fill="#5F41B2"/>
        <path d="M145.952 196.717C146.949 196.505 147.865 196.27 148.828 196.702C148.505 197.414 148.213 198.201 147.766 198.845C147.306 199.001 146.202 202.049 145.873 202.67L145.952 196.717Z" fill="#5F41B2"/>
        <path d="M231.538 149.1C232.907 151.271 233.96 153.778 235.066 156.097C233.932 156.063 232.791 155.917 231.661 155.809C231.627 153.573 231.431 151.336 231.538 149.1Z" fill="#5F41B2"/>
        <path d="M143.372 132.735C143.978 134.327 143.578 137.254 143.567 138.993C142.4 139.062 141.244 139.298 140.092 139.493C139.924 138.317 142.68 133.964 143.372 132.735Z" fill="#5F41B2"/>
        <path d="M205.548 93.7121C207.695 94.6269 210.804 96.3305 212.331 98.043C210.091 97.5535 207.777 97.5406 205.553 96.9789C205.525 95.8918 205.546 94.7996 205.548 93.7121Z" fill="#5F41B2"/>
        <path d="M200.737 91.8402C201.687 92.1867 202.697 92.4097 203.673 92.6703C203.675 93.6894 204.018 95.9086 203.448 96.7297L202.937 96.7199C201.731 96.7039 200.527 96.5558 199.327 96.4359C199.768 94.8969 200.265 93.3703 200.737 91.8402Z" fill="#5F41B2"/>
        <path d="M179.279 92.1566C180.115 92.5965 180.783 95.2297 181.189 96.1715C177.804 97.0629 174.124 97.4508 170.665 98.0496C170.079 98.1519 169.454 98.359 168.893 98.1004C168.909 98.0457 168.918 97.9883 168.943 97.9367C169.683 96.3621 177.37 93.0469 179.279 92.1566Z" fill="#5F41B2"/>
        <path d="M234.231 212.888L234.527 212.954C238.75 213.866 243.322 214.17 247.627 214.517L247.659 214.833C245.963 216.145 240.519 216.662 238.21 217.195L235.769 217.215C235.249 215.775 234.736 214.333 234.231 212.888Z" fill="#5F41B2"/>
        <path d="M205.085 66.0433C205.685 66.016 206.349 65.9519 206.942 66.0594C207.799 66.2148 208.624 66.7871 209.091 67.5172C209.574 68.273 209.657 69.1937 209.434 70.0504C209.099 71.3383 208.313 72.139 207.213 72.8203C206.57 72.8738 205.899 72.9219 205.264 72.7769C204.335 72.5648 203.498 71.9054 203.039 71.0758C202.986 70.9777 202.938 70.8769 202.895 70.7738C202.852 70.6711 202.814 70.566 202.781 70.4594C202.749 70.3527 202.722 70.2445 202.7 70.1347C202.679 70.025 202.663 69.9148 202.652 69.8035C202.642 69.6926 202.637 69.5812 202.638 69.4695C202.638 69.3578 202.645 69.2465 202.657 69.1355C202.669 69.0246 202.686 68.9144 202.709 68.8051C202.732 68.6961 202.761 68.5883 202.795 68.4816C203.193 67.2426 203.97 66.6285 205.085 66.0433Z" fill="#FEB309"/>
        <path d="M221.428 118.407C222.399 119.609 226.863 133.835 227.314 136.074C225.327 135.78 223.319 135.531 221.352 135.125C221.434 131.488 221.355 127.839 221.326 124.201C221.311 122.314 221.125 120.271 221.428 118.407Z" fill="#5F41B2"/>
        <path d="M205.924 172.904C210.924 173.071 215.89 173.571 220.822 174.403C220.54 176.702 220.656 179.18 220.856 181.486C216.381 177.556 212.014 175.433 205.972 175.579C205.88 174.697 205.922 173.791 205.924 172.904Z" fill="#5F41B2"/>
        <path d="M193.54 172.959C196.93 172.798 200.332 172.857 203.725 172.866L203.709 175.539C195.755 176.649 187.838 176.773 179.835 176.293C176.165 175.931 172.151 175.841 168.645 174.661C170.23 174.461 171.834 174.432 173.425 174.278C180.152 173.627 186.787 173.191 193.54 172.959Z" fill="#5F41B2"/>
        <path d="M221.643 174.787L221.771 174.511C224.198 174.612 227.181 175.2 229.541 175.793C229.514 181.341 229.881 186.884 229.855 192.421C229.08 192.356 228.299 192.308 227.527 192.207C226.362 188.592 223.952 185.427 221.697 182.429C221.652 179.883 221.566 177.332 221.643 174.787Z" fill="#5F41B2"/>
        <path d="M199.127 97.8102C200.645 98.1949 202.149 98.4 203.702 98.586L203.714 114.347C202.129 114.055 200.521 113.863 198.926 113.641C197.21 113.255 195.463 113.095 193.717 112.903C195.574 107.891 197.191 102.797 199.127 97.8102Z" fill="#5F41B2"/>
        <path d="M165.723 100.529L165.876 100.67C166.378 102.274 165.922 114.327 165.896 116.775C161.192 117.361 156.503 118.276 151.815 119.004L151.652 118.781C151.831 117.954 152.732 117.04 153.204 116.327C156.805 110.905 160.766 104.791 165.723 100.529Z" fill="#5F41B2"/>
        <path d="M221.378 136.935C223.458 137.326 225.55 137.64 227.653 137.876C228.064 139.651 228.88 141.352 229.151 143.15C229.38 144.672 229.226 146.337 229.222 147.878C229.216 150.371 229.258 152.866 229.284 155.358C226.671 155.133 224.022 154.618 221.417 154.268C221.187 148.533 221.247 142.672 221.378 136.935Z" fill="#5F41B2"/>
        <path d="M221.403 156.048C224.047 156.483 226.746 156.734 229.403 157.107L229.484 173.841C226.881 173.241 224.14 173.066 221.506 172.541L221.403 156.048Z" fill="#5F41B2"/>
        <path d="M231.803 157.303C233.036 157.412 234.266 157.536 235.496 157.675C238.558 163.672 241.454 169.541 243.772 175.875C239.914 175.473 235.826 174.997 232.053 174.109C232.052 168.502 231.9 162.908 231.803 157.303Z" fill="#5F41B2"/>
        <path d="M143.067 140.87C143.383 140.884 143.216 140.835 143.532 141.106C143.796 146.578 143.548 152.174 143.541 157.659C138.874 158.177 134.182 159.128 129.546 159.895L129.213 159.903L129.103 159.673C131.872 153.532 135.383 147.59 138.58 141.663L143.067 140.87Z" fill="#5F41B2"/>
        <path d="M164.775 175.241C165.253 175.174 165.55 175.121 166.021 175.27L166.13 175.548C165.666 176.721 158.653 182.541 157.166 184.163C155.639 185.828 154.139 187.588 152.81 189.413C151.694 190.946 150.736 192.666 149.423 194.039C148.75 194.181 148.066 194.28 147.387 194.393C146.899 194.452 146.422 194.581 145.972 194.329C145.463 189.771 145.739 182.967 145.798 178.2C148.423 177.966 151.078 177.436 153.689 177.042C157.384 176.484 161.119 176.013 164.775 175.241Z" fill="#5F41B2"/>
        <path d="M143.368 196.946L143.55 196.981C143.951 197.535 143.866 208.933 143.79 210.268C143.613 213.373 143.099 216.456 143.049 219.57C143.015 221.688 143.216 223.748 143.528 225.841C141.947 223.135 140.62 220.242 139.219 217.438C136.445 211.137 133.075 205.124 130.228 198.869C134.621 198.415 139.012 197.668 143.368 196.946Z" fill="#5F41B2"/>
        <path d="M205.661 98.8457C208.473 99.3898 211.361 99.2938 214.153 99.9066C216.834 103.399 219.864 112.222 221.166 116.666C216.152 115.731 210.748 115.045 205.669 114.606L205.661 98.8457Z" fill="#5F41B2"/>
        <path d="M232.093 176.088C236.053 176.994 240.336 177.276 244.377 177.802C246.573 183.146 248.022 189.437 249.014 195.124C243.434 194.219 237.808 193.582 232.219 192.723L232.093 176.088Z" fill="#5F41B2"/>
        <path d="M205.844 153.988C210.763 154.607 215.665 155.322 220.592 155.882C220.751 161.352 220.643 166.887 220.511 172.36C219.013 172.413 217.254 171.98 215.732 171.829C212.413 171.478 209.085 171.271 205.748 171.208C205.708 165.471 205.805 159.727 205.844 153.988Z" fill="#5F41B2"/>
        <path d="M205.728 116.382C210.716 117.12 215.714 117.777 220.723 118.354C220.712 121.344 221.077 133.207 220.532 135.116C215.659 134.244 210.757 133.586 205.827 133.141C205.471 127.611 205.721 121.926 205.728 116.382Z" fill="#5F41B2"/>
        <path d="M205.977 134.847C210.825 135.733 215.8 136.116 220.678 136.87C220.707 142.617 220.69 148.363 220.628 154.11L205.839 152.194C205.818 149.059 205.365 137.013 205.977 134.847Z" fill="#5F41B2"/>
        <path d="M180.799 97.8762L181.329 97.8524C182.469 98.4555 186.382 110.264 187.479 112.369C183.078 113.678 178.246 114.33 173.73 115.234C171.81 115.668 169.87 116.038 167.942 116.438L167.963 100.055C172.181 99.8695 176.718 98.9301 180.799 97.8762Z" fill="#5F41B2"/>
        <path d="M232.241 194.457C237.577 195.497 244.225 195.649 249.192 196.92C249.286 202.304 250.002 207.654 249.234 213.039C247.739 213.323 236.86 211.529 233.914 211.414C232.131 205.798 232.298 200.278 232.241 194.457Z" fill="#5F41B2"/>
        <path d="M143.421 178.602C143.449 178.602 143.525 178.584 143.544 178.616C143.933 179.284 143.715 193.045 143.716 195.028C139.061 195.301 134.356 196.566 129.705 197.107C128.914 196.496 128.387 194.71 128.004 193.781C126.425 189.78 125.203 185.654 123.948 181.544C126.604 181.37 129.251 180.835 131.874 180.404C135.715 179.755 139.564 179.154 143.421 178.602Z" fill="#5F41B2"/>
        <path d="M142.302 159.627C142.746 159.553 143.054 159.467 143.489 159.621C143.72 161.345 143.588 163.211 143.593 164.959C143.603 168.817 143.529 172.697 143.704 176.551C137.568 177.621 131.378 178.448 125.227 179.443C124.694 179.539 124.246 179.624 123.702 179.54C123.522 179.32 123.48 179.289 123.341 179.007C121.963 176.204 126.501 165.113 127.871 161.951C132.681 161.484 137.531 160.422 142.302 159.627Z" fill="#5F41B2"/>
        <path d="M165.359 118.823C165.591 118.795 165.438 118.795 165.804 118.938C166.096 120.564 165.936 122.466 165.949 124.128L165.996 135.242C159.568 136.642 152.835 137.426 146.333 138.484C146.167 138.49 145.97 138.429 145.806 138.396C145.258 137.073 145.336 130.04 145.93 128.687C147.083 126.066 148.651 123.495 150.23 121.109C155.173 120.063 160.356 119.607 165.359 118.823Z" fill="#5F41B2"/>
        <path d="M164.974 137.373C165.199 137.315 165.486 137.325 165.72 137.311C166.248 138.008 166.006 152.016 166.007 154.093C163.917 154.53 161.695 154.683 159.577 155.001C155.236 155.659 150.904 156.37 146.581 157.135C146.134 157.18 146.087 157.241 145.666 157.032C145.288 155.223 145.511 153.017 145.514 151.159L145.542 140.58C147.352 140.184 149.242 139.976 151.071 139.662C155.699 138.859 160.333 138.096 164.974 137.373Z" fill="#5F41B2"/>
        <path d="M238.21 217.194C241.401 217.071 244.434 216.518 247.412 215.327C250.576 222.029 256.102 231.244 253.465 238.9C253.392 239.11 253.312 239.318 253.225 239.522C253.137 239.726 253.042 239.927 252.94 240.125C252.837 240.322 252.728 240.516 252.612 240.705C252.496 240.895 252.373 241.08 252.244 241.261C252.114 241.442 251.978 241.618 251.836 241.789C251.693 241.959 251.545 242.125 251.391 242.285C251.237 242.445 251.077 242.6 250.912 242.748C250.746 242.897 250.576 243.04 250.4 243.176C248.256 244.518 246.422 245.086 243.911 245.351C242.275 239.847 240.789 234.294 239.181 228.78C238.505 226.464 237.966 223.821 236.966 221.643C236.611 220.163 235.946 218.731 235.769 217.215L238.21 217.194Z" fill="white"/>
        <path d="M187.766 114.281C187.912 114.298 187.827 114.277 188.022 114.404C188.76 114.886 189.892 119.589 190.107 120.641C188.559 124.791 188.236 126.759 188.28 131.193C185.733 131.869 183.042 132.208 180.443 132.642C176.947 133.227 173.457 133.843 169.973 134.493L167.992 134.889L167.945 118.236C170.982 118.054 174.111 117.205 177.089 116.598C180.644 115.875 184.278 115.271 187.766 114.281Z" fill="#5F41B2"/>
        <path d="M164.804 156.131L165.625 156.034C166.259 156.738 165.958 171.207 165.962 173.333C163.508 173.518 161.039 173.989 158.606 174.357L146.854 176.101C146.302 176.161 146.233 176.3 145.778 175.939C145.552 173.876 145.658 171.733 145.66 169.656L145.682 158.969C152.046 158.353 158.473 157.075 164.804 156.131Z" fill="#5F41B2"/>
        <path d="M187.355 133.469C187.783 133.398 187.795 133.331 188.206 133.533C188.463 135.555 188.3 137.737 188.306 139.78C188.329 143.474 188.329 147.169 188.306 150.863C181.872 151.855 175.41 152.536 168.989 153.668C168.637 153.731 168.422 153.716 168.075 153.633C167.684 151.914 167.927 149.678 167.925 147.903L167.918 136.791C170.093 136.61 172.336 136.045 174.494 135.665C178.775 134.898 183.062 134.166 187.355 133.469Z" fill="#5F41B2"/>
        <path d="M167.932 155.569C170.522 155.47 173.197 154.9 175.769 154.534C179.94 153.939 184.145 153.429 188.286 152.644C188.272 155.943 187.853 168.824 188.411 171.059C185.68 171.575 182.821 171.605 180.055 171.823C176.031 172.14 171.975 172.553 167.981 173.129L167.932 155.569Z" fill="#5F41B2"/>
        <path d="M188.855 153.503L188.95 134.587C188.98 131.383 188.659 127.6 189.389 124.477C190.175 121.111 192.037 117.808 193.068 114.461C196.472 115.393 200.186 115.682 203.688 116.105L203.724 132.751C201.744 132.534 194.96 131.315 193.607 132.396C193.534 132.454 193.477 132.529 193.412 132.595C193.994 133.389 195.151 133.66 196.082 133.809C198.601 134.213 201.218 134.407 203.763 134.597L203.794 151.853C201.8 151.586 195.577 150.425 194.04 151.054C193.982 151.5 193.987 151.829 194.068 152.271C195.227 153.085 201.948 153.516 203.801 153.787C203.604 159.549 203.743 165.349 203.755 171.116C201.738 171.088 195.174 170.612 193.698 171.298L193.654 171.611C193.611 171.891 193.56 172.138 193.48 172.408C192.209 172.773 190.351 172.476 189.013 172.43L188.843 169.106C189.039 163.932 188.86 158.686 188.855 153.503Z" fill="#5F41B2"/>
        <path d="M190.629 137.331C190.911 137.291 191.222 137.232 191.509 137.23C192.24 137.227 192.879 137.467 193.396 137.987C193.762 138.356 193.957 138.788 193.912 139.319C193.838 140.193 193.263 140.609 192.615 141.086C192.353 141.186 192.086 141.289 191.802 141.302C191.298 141.323 190.711 141.083 190.342 140.746C189.882 140.325 189.683 139.707 189.688 139.098C189.693 138.298 190.106 137.87 190.629 137.331Z" fill="black"/>
        <path d="M190.798 162.467C191.693 162.466 192.463 162.608 193.121 163.254C193.52 163.645 193.78 164.211 193.733 164.779C193.668 165.559 193.164 166.152 192.619 166.661C191.582 166.646 190.745 166.516 190.007 165.71C189.605 165.27 189.35 164.762 189.447 164.146C189.58 163.302 190.143 162.91 190.798 162.467Z" fill="black"/>
        <path d="M191.197 146.695C191.476 146.716 191.481 146.711 191.79 146.766C192.488 146.891 193.187 147.278 193.542 147.912C193.795 148.364 193.813 148.897 193.643 149.381C193.361 150.182 192.719 150.526 192.025 150.915C191.602 150.884 191.141 150.864 190.741 150.716C189.827 150.375 189.418 149.355 188.979 148.557C189.634 147.632 190.109 147.081 191.197 146.695Z" fill="black"/>
        <path d="M190.79 124.821C191.195 124.791 191.613 124.752 192.018 124.784C192.588 124.83 193.265 125.15 193.615 125.62C193.957 126.08 194.049 126.445 193.984 127.013C193.882 127.907 193.232 128.4 192.565 128.906C191.652 128.956 190.884 128.879 190.18 128.252C189.696 127.822 189.484 127.319 189.507 126.665C189.537 125.815 190.176 125.3 190.79 124.821Z" fill="black"/>
        <path d="M187.348 51.3199C187.604 51.959 187.862 52.5996 188.167 53.2164C190.03 56.984 193.646 59.7657 197.597 61.0684C204.646 63.3918 203.463 59.343 204.438 59.002C205.007 58.8024 205.813 59.0297 206.294 59.3395C207.293 59.9828 207.445 61.4293 207.627 62.493C207.349 63.45 206.923 64.3199 206.5 65.2192C205.792 65.3293 204.943 65.3989 204.29 65.7043C201.659 66.9364 201.909 70.8989 201.066 73.2938C200.031 76.2336 198.246 78.4672 195.397 79.8254C195.822 84.7903 196.873 88.141 200.407 91.7168C198.607 98.3324 195.922 104.898 193.649 111.376C192.696 114.087 191.775 116.814 190.667 119.467C188.424 113.254 185.94 107.104 183.578 100.933C182.525 98.1836 181.275 95.4391 180.488 92.6024C181.158 92.0285 181.838 91.4567 182.476 90.8473C185.4 88.0535 185.291 84.1586 185.406 80.4375C183.827 79.6504 182.378 78.7891 181.126 77.5262C176.902 73.2645 178.012 66.3231 178.07 60.8059C181.841 57.3461 185.243 56.5828 187.348 51.3199Z" fill="white"/>
        <path d="M182.318 63.5367C182.586 63.5766 182.896 63.6176 183.131 63.7606C183.636 64.0668 183.969 64.7016 184.049 65.2699C184.192 66.2821 183.932 66.9406 183.349 67.7508C182.945 67.6403 182.472 67.5383 182.12 67.3031C181.623 66.9699 181.367 66.4246 181.322 65.8422C181.255 64.9778 181.82 64.1785 182.318 63.5367Z" fill="black"/>
        <path d="M192.794 63.8078C193.349 63.7946 193.752 63.8332 194.212 64.1766C194.595 64.4617 194.828 64.9215 194.894 65.3867C195.039 66.3926 194.725 67.0508 194.146 67.8453C193.722 67.9528 193.407 67.9383 192.973 67.8965C192.55 67.6078 192.32 67.4282 192.171 66.9168C191.879 65.9164 192.343 64.6828 192.794 63.8078Z" fill="black"/>
        <path d="M187.553 64.5574C188.629 65.4543 187.722 67.8793 188.131 69.1762C188.926 69.9074 190.426 69.5453 191.465 70.0649C191.64 70.2875 191.85 70.443 191.857 70.7414C191.891 72.1227 190.131 73.8578 189.214 74.7856C188.936 74.9934 188.806 75.0375 188.481 75.1285C188.064 75.0156 187.744 74.9082 187.401 74.6359C186.287 73.7531 185.421 71.9379 185.327 70.5324C185.295 70.0406 185.245 69.9945 185.588 69.6164C185.915 69.5656 186.341 69.5406 186.645 69.4207C186.668 69.4117 186.995 69.243 187.026 69.1625C187.416 68.132 187.153 65.9297 187.553 64.5574Z" fill="#F72238"/>
      </g>
    </g>
  </g>
  <defs>
    <clipPath id="clip0_712_348">
      <rect width="400" height="400" fill="white"/>
    </clipPath>
  </defs>
</svg>
