<svg width="400" height="400" viewBox="0 0 400 400" fill="none" xmlns="http://www.w3.org/2000/svg">
  <g clip-path="url(#clip0_712_311)">
    <mask id="mask0_712_311" style="mask-type:luminance" maskUnits="userSpaceOnUse" x="0" y="0" width="400" height="400">
      <path d="M400 0H0V400H400V0Z" fill="white"/>
    </mask>
    <g mask="url(#mask0_712_311)">
      <mask id="mask1_712_311" style="mask-type:luminance" maskUnits="userSpaceOnUse" x="0" y="0" width="400" height="400">
        <path d="M400 0H0V400H400V0Z" fill="white"/>
      </mask>
      <g mask="url(#mask1_712_311)">
        <path d="M0 0H399.641H400V384.395V400H0.797203H0.283855H0V384.029V383.77V0Z" fill="#EA383A"/>
        <path d="M175.175 109.442C175.285 100.748 175.419 93.6141 182.119 87.1344C187.303 82.1203 194.028 79.782 201.177 79.9399C207.583 80.0813 213.716 82.316 218.163 87.052C224.526 93.8293 224.643 100.591 225.053 109.289C227.854 110.741 229.876 112.489 230.842 115.606C231.644 118.191 231.241 120.979 229.939 123.328C228.633 125.684 226.755 126.989 224.396 128.113C224.609 128.901 224.843 129.688 224.995 130.49C223.957 132.496 222.606 133.921 220.388 134.6C219.08 135 217.759 135.021 216.406 135.05C215.881 135.691 215.33 136.321 214.84 136.989C214.838 143.342 215.641 149.619 215.862 155.956C220.305 152.968 224.721 149.942 229.11 146.876C231.939 144.923 234.805 142.847 237.79 141.143C239.001 147.156 240.25 153.268 241.086 159.344C238.755 160.23 236.327 160.863 233.933 161.553C241.289 166.89 248.377 172.612 255.605 178.125C258.585 180.399 264.622 184.467 267.112 186.999C263.829 189.832 261.082 193.882 258.286 197.213C253.796 202.559 249.055 207.749 244.803 213.289L244.694 266.26C244.659 276.575 244.175 287.009 244.592 297.307C241.307 297.117 237.935 297.275 234.639 297.273L215.268 297.266L154.857 297.293C155.037 269.391 155.045 241.489 154.879 213.587L152.23 210.442C151.373 209.052 150.008 207.695 148.952 206.435L139.2 194.689C137.63 192.812 135.832 191.034 134.394 189.057C133.98 188.488 133.716 187.982 133.544 187.301C134.128 185.516 162.215 167.565 166.248 163.965C166.305 163.914 166.362 163.861 166.419 163.809C164.933 163.226 163.348 162.837 161.815 162.392C162.736 159.799 163.805 157.25 164.766 154.67C166.058 151.205 167.26 147.687 168.801 144.322C171.073 145.602 173.159 147.25 175.273 148.771C178.457 151.042 181.625 153.334 184.776 155.649C184.381 149.28 184.777 142.679 184.825 136.287C184.275 135.621 183.68 134.988 183.102 134.345C182.781 134.478 182.461 134.611 182.125 134.702C180.937 135.025 179.581 134.561 178.558 133.949C177.53 133.335 176.749 132.427 176.489 131.241C176.358 130.647 176.281 130.052 176.612 129.54L176.953 129.528L177.079 129.829C177.826 129.953 178.536 129.557 179.213 129.279L179.594 129.196C180.083 129.556 180.236 130.038 180.504 130.561C180.703 130.95 180.61 130.804 180.936 131.131L181.306 131.089L181.401 130.899C180.922 129.915 180.371 128.923 179.427 128.322C176.512 128.214 174.037 128.055 171.915 125.76C170.03 123.722 169.183 120.693 169.386 117.957C169.587 115.254 170.857 112.58 172.926 110.811C173.6 110.234 174.386 109.837 175.175 109.442Z" fill="black"/>
        <path d="M179.213 129.279C179.461 129.894 179.745 130.927 180.344 131.238C180.75 131.448 181.239 131.581 181.673 131.723C181.964 132.359 182.375 133.024 182.249 133.738C181.998 134.082 181.884 134.281 181.425 134.362C180.411 134.541 179.082 133.609 178.395 132.957C177.393 132.003 177.102 131.179 177.079 129.829C177.827 129.953 178.536 129.557 179.213 129.279Z" fill="#CCCCCC"/>
        <path d="M218.005 132.902C218.288 132.853 218.816 132.857 218.979 132.613C219.937 131.172 219.212 128.803 221.411 128.14C221.827 128.014 222.691 127.912 223.077 128.134C223.664 128.471 224.286 129.327 224.371 130.013C224.462 130.752 224.069 131.382 223.582 131.894C222.201 133.346 220.539 133.687 218.736 134.298C218.489 134.343 218.197 134.416 217.943 134.426C217.43 134.446 217.38 134.429 217.021 134.101L217.07 133.645C217.422 133.246 217.496 133.087 218.005 132.902Z" fill="#CCCCCC"/>
        <path d="M185.231 136.83C185.64 137.112 185.985 137.493 186.345 137.834C190.482 141.751 194.922 144.379 200.792 144.187C206.302 144.007 210.733 141.261 214.425 137.339C214.38 143.597 215.011 149.943 215.452 156.183L213.41 157.586C209.096 160.468 204.873 163.47 200.61 166.425C195.332 163.194 190.068 159.411 185.113 155.7C185.235 149.411 185.274 143.121 185.231 136.83Z" fill="white"/>
        <path d="M197.418 80.7711C201.68 80.5535 205.86 80.5574 209.913 82.1004C215.605 84.2679 219.786 88.7199 222.21 94.2504C223.878 98.0531 224.125 101.568 224.327 105.665C224.383 106.786 224.593 108.223 224.181 109.285L223.836 109.376C223.392 109.263 222.953 109.166 222.502 109.086C222.244 109.362 222.104 109.493 221.766 109.681C220.386 107.946 222.387 102.407 219.577 99.6172C218.853 98.898 217.941 98.6562 216.957 98.5039C214.615 98.1422 211.976 98.3875 209.602 98.4117C206.736 98.4406 203.857 98.366 200.994 98.4687C199.758 98.4765 197.07 98.8183 195.991 98.3152L195.935 97.7855L195.736 97.7547L195.382 98.3816C194.263 98.6285 184.676 98.6547 183.886 98.305L183.782 97.7629L183.598 97.6808C182.98 98.664 182.54 98.548 181.501 98.9859C177.308 100.756 179.617 106.219 178.38 109.266C177.968 109.443 177.796 109.437 177.36 109.341C177.098 109.041 176.913 108.815 176.547 108.648L176.505 109.373L176.177 109.418L175.871 109.184C175.84 108.981 175.803 108.778 175.786 108.574C175.681 107.24 175.828 105.805 175.879 104.467C176.1 98.7367 177.088 93.6406 180.913 89.1379C185.163 84.1343 190.923 81.3308 197.418 80.7711Z" fill="#EA383A"/>
        <path d="M184.042 99.1031C190.411 99.3168 196.841 99.1981 203.213 99.1399C206.467 99.1106 215.857 98.552 218.163 99.3207C222.239 100.68 219.928 108.134 221.555 111.149L221.77 111.206C221.845 110.927 221.912 110.541 222.054 110.293C222.287 109.888 222.567 109.865 222.98 109.729C223.53 109.822 223.809 110.15 224.201 110.515L224.381 110.685C224.432 110.596 224.606 110.286 224.666 110.217C224.881 109.971 224.89 109.955 225.181 109.992C226.583 110.171 228.547 112.374 229.301 113.533C230.632 115.581 230.995 118.167 230.436 120.53C229.827 123.102 228.279 125.381 225.977 126.714C225.035 127.259 222.938 127.737 221.893 127.385C221.537 127.265 221.599 127.225 221.444 126.917C222.109 124.926 223.834 122.952 224.763 120.984L224.927 120.945C225.017 120.922 225.108 120.897 225.198 120.875C225.604 120.775 226.001 120.697 226.373 120.493C227.091 120.1 227.554 119.572 227.769 118.777C228.024 117.832 227.659 116.646 227.168 115.835C226.823 115.265 226.464 114.971 225.809 114.794C225.252 114.87 225.023 114.995 224.584 115.343L224.651 115.591C225.177 115.643 225.911 115.65 226.403 115.852C226.847 116.034 227.163 116.378 227.286 116.847C227.473 117.563 227.086 118.588 226.719 119.195C226.237 119.989 225.679 120.165 224.807 120.4C224.725 120.422 224.643 120.443 224.561 120.464C223.129 123.148 221.434 125.51 219.798 128.057C217.117 132.23 215.539 135.693 211.798 139.241C210.489 140.324 209.209 141.291 207.681 142.047C207.428 142.169 207.172 142.285 206.913 142.395C206.655 142.504 206.393 142.608 206.129 142.704C205.866 142.801 205.599 142.891 205.331 142.975C205.063 143.058 204.792 143.135 204.52 143.205C204.248 143.275 203.974 143.339 203.699 143.395C203.423 143.452 203.147 143.501 202.869 143.544C202.591 143.587 202.312 143.623 202.033 143.652C201.753 143.68 201.473 143.702 201.192 143.717C200.911 143.732 200.631 143.74 200.349 143.741C200.068 143.743 199.787 143.736 199.506 143.723C199.225 143.711 198.945 143.691 198.666 143.664C198.386 143.637 198.107 143.603 197.829 143.563C197.55 143.522 197.274 143.474 196.998 143.42C196.722 143.365 196.448 143.304 196.175 143.236C195.902 143.168 195.631 143.093 195.362 143.011C195.093 142.93 194.826 142.842 194.562 142.747C184.857 139.349 181.09 129.064 177.049 120.58C176.362 120.572 175.339 120.663 174.699 120.416C173.996 120.145 173.589 119.661 173.341 118.969C172.082 115.439 174.951 115.27 175.37 114.361C175.195 114.315 175.081 114.275 174.889 114.277C174.352 114.284 173.874 114.493 173.489 114.859C172.718 115.594 172.351 116.656 172.345 117.708C172.339 118.696 172.698 119.649 173.441 120.314C174.533 121.293 175.572 121.121 176.925 121.057C177.904 123.245 178.695 125.511 179.7 127.697C178.137 127.886 176.661 127.916 175.163 127.343C173.163 126.58 171.602 124.863 170.748 122.932C170.678 122.776 170.612 122.619 170.55 122.46C170.488 122.301 170.43 122.141 170.377 121.979C170.323 121.817 170.273 121.654 170.227 121.489C170.182 121.325 170.141 121.159 170.104 120.993C170.066 120.826 170.034 120.659 170.005 120.491C169.977 120.323 169.952 120.154 169.932 119.984C169.912 119.815 169.896 119.645 169.885 119.475C169.874 119.305 169.866 119.135 169.863 118.964C169.861 118.793 169.862 118.623 169.868 118.452C169.874 118.282 169.884 118.112 169.899 117.942C169.913 117.772 169.932 117.602 169.955 117.433C169.978 117.264 170.005 117.096 170.037 116.929C170.068 116.761 170.104 116.594 170.145 116.428C170.185 116.263 170.229 116.098 170.277 115.934C170.326 115.771 170.379 115.609 170.435 115.448C170.492 115.287 170.552 115.127 170.617 114.97C171.389 113.056 172.911 110.971 174.908 110.209C175.421 110.014 175.792 110.038 176.294 110.257C176.702 110.684 176.819 110.977 176.968 111.549C176.984 111.611 176.999 111.673 177.015 111.736C177.111 111.21 177.223 110.698 177.355 110.18C177.834 109.831 178.166 109.979 178.738 110.018C180.414 108.577 178.229 102.911 180.353 100.477C181.347 99.3379 182.635 99.1871 184.042 99.1031Z" fill="white"/>
        <path d="M195.812 129.636C198.683 129.826 199.506 130.304 202.586 129.762C203.201 129.653 203.802 129.507 204.326 129.876C204.229 130.414 203.977 130.55 203.595 130.929C202.807 131.393 202.081 131.68 201.173 131.827C199.723 132.061 197.76 132.083 196.556 131.126C196.014 130.695 195.866 130.307 195.812 129.636Z" fill="black"/>
        <path d="M186.363 109.198C186.979 109.152 187.712 109.096 188.316 109.252C189.122 109.459 189.804 110.003 190.236 110.697C190.263 110.993 190.338 111.207 190.205 111.486C189.85 112.223 189.097 112.437 188.382 112.688C187.843 112.754 187.254 112.8 186.711 112.738C185.787 112.63 185.031 112.077 184.491 111.353C184.433 111.046 184.343 110.863 184.46 110.557C184.776 109.729 185.607 109.5 186.363 109.198Z" fill="black"/>
        <path d="M211.767 109.199C212.715 109.149 213.628 109.096 214.523 109.469C215.32 109.801 216.003 110.325 216.341 111.128C216.324 111.419 216.365 111.605 216.188 111.855C215.703 112.54 214.921 112.679 214.153 112.836C213.469 112.873 212.774 112.86 212.098 112.743C211.169 112.583 210.275 112.07 209.755 111.283C209.726 110.987 209.652 110.796 209.791 110.519C210.177 109.752 211.022 109.496 211.767 109.199Z" fill="black"/>
        <path d="M199.551 107.006C200.244 107.057 201.214 107.085 201.721 107.642C202.257 108.23 202.288 109.571 202.323 110.334C202.437 112.774 202.804 123.145 202.185 125.16C201.867 126.193 200.987 127.035 200.273 127.811L200.074 127.92C199.521 127.693 198.991 126.798 198.686 126.268C198.194 125.412 197.934 124.337 197.849 123.359C197.706 121.703 197.884 109.957 198.23 108.695C198.463 107.846 198.806 107.458 199.551 107.006Z" fill="#EA383A"/>
        <path d="M399.641 0H400V384.395V400H0.797203H0.283855H0V384.029V383.77L93.3453 383.86L126.338 383.83C132.473 383.829 138.668 383.657 144.797 383.922L144.926 323.982C143.504 321.832 141.801 319.905 140.214 317.878C137.782 314.772 135.404 311.636 132.93 308.561C129.786 304.653 126.371 300.616 123.67 296.388C118.305 287.988 115.944 277.867 116.022 267.989C116.066 262.5 117.247 257.584 118.444 252.278L121.366 239.397L133.284 188.139C135.079 190.658 137.322 192.972 139.291 195.375C143.515 200.532 147.688 205.767 152.062 210.797L152.23 210.442L154.879 213.587C155.045 241.489 155.037 269.391 154.857 297.293L215.268 297.266L234.639 297.273C237.935 297.275 241.307 297.117 244.593 297.307L244.878 297.186C245.145 269.255 245.256 241.323 245.213 213.39C249.733 207.905 254.299 202.461 258.913 197.055C261.611 193.85 264.194 190.518 267.041 187.445C269.744 199.28 272.353 211.157 275.198 222.959C277.046 230.421 278.792 237.907 280.435 245.417C282.235 253.359 284.345 260.961 284.189 269.183C283.998 279.271 281.231 288.542 275.859 297.092C272.613 302.26 268.566 306.987 264.82 311.799C261.994 315.43 258.231 320.75 254.984 323.816L255.042 383.985C272.346 383.78 289.677 383.94 306.985 383.951L322.072 383.907C324.46 383.896 327.082 383.656 329.435 383.958C332.277 383.747 335.196 383.888 338.045 383.899L352.221 383.895L399.641 383.905V0Z" fill="black"/>
        <path d="M0 384.029C0.703215 384.966 0.395855 397.816 0.283855 400H0V384.029Z" fill="#CCCCCC"/>
        <path d="M211.529 301.988C213.197 301.944 214.876 301.983 216.546 301.982C224.549 309.925 232.709 317.704 241.026 325.317C243.628 327.707 246.245 330.08 248.878 332.436C250.745 334.105 252.703 335.706 254.393 337.557V341.397C252.997 340.761 249.143 336.909 247.723 335.634C235.468 324.63 223.825 312.935 211.529 301.988Z" fill="#CCCCCC"/>
        <path d="M184.071 302.032L188.562 301.961C184.223 306.61 179.29 310.612 174.686 314.985C165.674 323.544 156.762 332.28 147.411 340.47C146.683 341.016 146.008 341.748 145.334 342.366L145.319 337.957C148.87 335.274 152.144 331.892 155.44 328.878C159.665 325.046 163.851 321.173 168 317.258C173.327 312.169 178.575 306.936 184.071 302.032Z" fill="#CCCCCC"/>
        <path d="M200.785 301.947L208.047 301.937L208.017 320.762C208.01 323.943 208.371 327.584 207.751 330.692C207.414 332.382 206.617 333.666 205.588 335.002C204.088 336.462 202.833 337.122 200.789 337.472L200.785 301.947Z" fill="#CCCCCC"/>
        <path d="M152.23 210.442L154.879 213.587C155.045 241.489 155.037 269.391 154.857 297.293L215.268 297.266L234.639 297.273C237.935 297.275 241.307 297.117 244.593 297.307L244.878 297.186C245.621 297.274 246.75 297.454 247.232 298.116C247.571 298.581 247.486 298.746 247.383 299.27C247.045 299.726 246.731 300.025 246.197 300.225C245.61 300.446 244.876 300.497 244.33 300.144C243.491 299.6 243.404 297.661 243.19 296.735L243.162 301.469C238.405 301.352 233.606 301.527 228.841 301.504L194.41 301.414C189.868 301.438 158.178 301.899 156.831 301.372C156.8 301.06 156.797 300.775 156.824 300.464L156.854 300.123C156.14 299.902 155.477 300.504 154.744 300.493C154.274 300.486 153.777 300.291 153.468 299.923C153.264 299.68 153.151 299.4 153.183 299.087C153.277 298.181 153.868 297.617 154.503 297.028L154.722 240.235C154.722 231.575 155.086 222.461 154.622 213.846C153.799 212.809 152.916 211.81 152.062 210.797L152.23 210.442Z" fill="white"/>
        <path d="M217.45 301.982C225.965 301.675 234.587 301.928 243.114 301.917C243.809 303.738 244.859 305.494 245.762 307.221C247.609 310.737 249.488 314.234 251.402 317.714C252.352 319.461 253.81 321.566 254.209 323.527C254.885 326.858 254.447 333.024 254.392 336.616C252.875 336.23 220.463 305.113 217.45 301.982Z" fill="white"/>
        <path d="M156.526 301.914L183.293 301.958C175.541 309.555 167.532 316.98 159.561 324.349C154.876 328.689 150.154 332.988 145.395 337.246C145.228 332.838 145.376 328.366 145.389 323.952C147.423 320.435 149.174 316.681 151.019 313.058C152.888 309.386 154.936 305.712 156.526 301.914Z" fill="white"/>
        <path d="M208.594 301.918C209.318 301.932 210.296 301.8 210.904 302.223C213.319 303.9 215.5 306.389 217.656 308.416L230.923 320.842C235.494 325.162 240.094 329.489 244.765 333.698C247.982 336.597 251.312 339.384 254.439 342.379L254.503 384.289L246.924 384.32L200.78 384.288L200.795 338.099C202.737 337.667 204.39 336.973 205.822 335.528C205.967 335.381 206.106 335.23 206.24 335.074C206.374 334.918 206.502 334.757 206.624 334.592C206.746 334.427 206.863 334.257 206.974 334.084C207.084 333.911 207.188 333.734 207.286 333.553C207.384 333.372 207.476 333.188 207.561 333.001C207.646 332.814 207.724 332.623 207.796 332.431C207.868 332.238 207.933 332.043 207.991 331.846C208.049 331.648 208.099 331.449 208.143 331.248C208.934 327.772 208.554 323.666 208.562 320.104L208.594 301.918Z" fill="#CCCCCC"/>
        <path d="M189.427 301.963C193.01 301.914 196.599 301.955 200.182 301.951L200.19 384.326C185.77 384.05 171.293 384.295 156.866 384.275C153.02 384.282 149.175 384.257 145.33 384.199L145.368 343.104C149.83 338.631 154.783 334.497 159.422 330.195L189.427 301.963Z" fill="#CCCCCC"/>
        <path d="M324.968 383.255C349.974 383.511 374.997 382.978 400 383.324V400H0.798805L0.78125 383.296L199.375 383.764L241.766 383.725C244.142 383.722 253.838 384.026 255.166 383.652C257.741 382.928 260.766 383.313 263.439 383.312L274.884 383.306L324.968 383.255Z" fill="#EA383A"/>
        <path d="M200.781 382.812H200V400.391H200.781V382.812Z" fill="black"/>
        <path d="M255.078 383.203H254.297V400.781H255.078V383.203Z" fill="black"/>
        <path d="M189.409 319.556C192.992 319.506 196.582 319.547 200.165 319.543L200.173 401.918C185.752 401.645 171.276 401.887 156.848 401.867C153.003 401.875 149.157 401.848 145.312 401.793L145.35 360.697C149.812 356.223 154.766 352.089 159.404 347.788L189.409 319.556Z" fill="#CCCCCC"/>
        <path d="M208.595 319.541C209.319 319.554 210.297 319.422 210.906 319.845C213.321 321.523 215.502 324.012 217.657 326.038L230.924 338.464C235.495 342.784 240.096 347.111 244.767 351.321C247.983 354.219 251.313 357.006 254.44 360.001L254.505 401.91L246.925 401.941L200.781 401.91L200.796 355.721C202.739 355.289 204.391 354.595 205.824 353.15C205.968 353.003 206.107 352.852 206.241 352.696C206.375 352.54 206.503 352.379 206.625 352.214C206.748 352.048 206.864 351.879 206.975 351.706C207.086 351.533 207.189 351.355 207.288 351.175C207.386 350.994 207.477 350.81 207.562 350.623C207.647 350.435 207.726 350.246 207.798 350.053C207.869 349.86 207.934 349.665 207.992 349.468C208.05 349.27 208.101 349.071 208.145 348.871C208.935 345.394 208.555 341.288 208.563 337.727L208.595 319.541Z" fill="#CCCCCC"/>
        <path d="M145.312 382.422H144.922V400H145.312V382.422Z" fill="black"/>
      </g>
    </g>
  </g>
  <defs>
    <clipPath id="clip0_712_311">
      <rect width="400" height="400" fill="white"/>
    </clipPath>
  </defs>
</svg>
